<svg xmlns="http://www.w3.org/2000/svg" viewBox="29.095 100.337 138.127 112.005" aria-hidden="true" width="50" height="50" fill="#fff">
  <path d="M92.467 210.25c1.865-2.702 4.387-6.938 6.576-11.045l1.55-2.91.192.925c.106.51.275 1.967.376 3.24.283 3.575 1.778.795 4.87-9.056 1.319-4.197 1.495-4.154 2.415.594.627 3.232.59 3.185 1.274 1.64 2.06-4.657 2.472-8.885 1.7-17.426-.129-1.418-.092-1.78.163-1.622.332.206 2.779 3.83 2.997 4.44.67 1.878.273-4.588-.49-7.948-.221-.977-.883-3.468-1.47-5.535-1.35-4.751-1.28-5.085.563-2.676 1.922 2.512 2.227 2.57 1.555.3-1.182-3.994-.915-10.206.284-6.603.758 2.278.957 2.216 1.156-.362.498-6.456 3.812-10.453 12.92-15.581 2.447-1.378 3.926-2.371 4.01-2.692.128-.489.468-.51 8.426-.518 5.573-.006 9.335-.134 11.468-.393 10.292-1.246 9.692-1.3 12.3 1.113l1.92 1.78-.197-1.71c-1.58-13.68-15.581-22.943-39.572-26.181l-2.267-.306-3.09-2.89c-2.978-2.785-3.895-3.422-3.49-2.427 1.408 3.457 1.515 3.449-3.865.294-8.5-4.985-14.19-7.488-12.058-5.305 1.265 1.296 1.238 1.358-.415.942-1.867-.47-11.148-1.643-14.537-1.838l-2.727-.157 1.456.877 1.455.878-3.043.202a392 392 0 0 0-7.455.6c-2.427.219-4.607.398-4.844.398-.929 0-.07.471 1.443.792 2.115.449 2.05.547-1.116 1.713-5.26 1.936-12.237 5.935-18.457 10.58-3.908 2.918-3.978 3.058-1.2 2.395.868-.207 1.628-.325 1.691-.262s-2.521 2.804-5.743 6.09c-5.671 5.786-6.256 6.474-5.508 6.474.44 0 3.889-1.166 4.644-1.57.691-.37.723-.032.074.806-2.22 2.868-8.104 11.84-7.9 12.044.064.063.85-.322 1.747-.856 2.068-1.232 2.11-1.155.593 1.089-.687 1.016-2.743 4.05-4.569 6.743-3.845 5.669-3.775 5.556-3.465 5.556.13 0 1.463-.778 2.962-1.728s2.774-1.679 2.833-1.62c.886.886-4.263 8.969-9.687 15.21-1.054 1.212-1.871 2.248-1.817 2.302.144.144 10.615-2.889 12.755-3.694 2.136-.804 2.491 1.354 1.037 6.305-.183.623.861.52 5.407-.53 3.682-.85 3.495-.934 4.547 2.052 1.456 4.134 2.954 7.897 3.142 7.895.099 0 1.467-1.37 3.042-3.042 3.605-3.829 2.913-4.187 5.877 3.044 1.186 2.893 2.994 6.925 3.197 7.13.065.065 1.103-.862 2.307-2.06l2.189-2.177 1.2 1.927a341 341 0 0 1 3.007 4.97c3.963 6.676 3.434 6.389 4.869 2.645 1.356-3.54 1.161-3.538 3.172-.024 2.945 5.144 4.69 10.411 5.336 16.098.405 3.568.3 3.538 2.285.661m-1.115-2.117c-.628-3.921-2.212-9.01-3.76-12.088-.893-1.774-.924-1.931-.888-4.63l.036-2.795-2.918-2.906-2.919-2.905v-14.32l-1.177-1.155c-.648-.636-1.214-1.405-1.257-1.709-.082-.576-1.142-.925-1.545-.509-.449.465.044 1.676.682 1.676.389 0 .954.402 1.557 1.106l.947 1.106v14.16l2.91 2.943 2.91 2.943v1.615c0 .889-.068 1.547-.151 1.464s-.733-1.086-1.443-2.227-1.386-2.156-1.502-2.255c-.116-.1-1.134-1.06-2.261-2.135l-2.05-1.954v-6.402c0-4.391.095-6.556.305-6.893.407-.65.11-1.354-.57-1.354-.607 0-1.154 1.03-.767 1.442.13.138.237 3.237.237 6.885v6.634l2.117 2.105c2.443 2.428 2.382 2.172 1.268 5.357-1.03 2.947-.903 2.925-2.335.397-1.327-2.343-5.05-8.403-5.647-9.194-.386-.511-.472-.458-2.505 1.554-1.986 1.967-2.12 2.053-2.4 1.53-.746-1.392-3.724-9.093-3.596-9.299.078-.127.025-.304-.12-.393-.144-.089-.587-.87-.985-1.738-.906-1.974-.522-2.12-4.154 1.59-1.704 1.74-3.147 3.02-3.208 2.843-.06-.176-.71-1.958-1.443-3.96-.733-2-1.333-3.7-1.333-3.778s-.168-.542-.374-1.033l-.373-.894-4.15.866-4.15.866.136-.691c.36-1.817 1.023-6.949.913-7.059-.069-.068-2.613.692-5.655 1.688-3.041.997-5.876 1.899-6.3 2.005-.915.228-1.124.575 2.433-4.045 4.669-6.064 6.143-8.869 6.143-11.692 0-2.134.028-2.12-1.853-.855l-1.448.976.497-.777c.273-.427 1.653-2.444 3.066-4.481 6.308-9.095 6.47-9.423 4.005-8.11-.86.459-1.64.834-1.734.834-.412 0 1.68-3.077 5.985-8.798 2.399-3.188 2.449-3.48.445-2.599a87 87 0 0 1-2.611 1.08l-1.453.57 1.85-1.922c1.017-1.057 3.695-3.712 5.95-5.9 4.591-4.455 4.836-4.804 3.167-4.522-1.588.268-1.26-.072 2.341-2.426 4.245-2.774 6.42-4.033 8.968-5.189 2.546-1.155 2.458-1.14 2.458-.44 0 .456.14.532.858.463.984-.095 1.332-.901.615-1.425-.37-.271-.165-.4 1.36-.853 4.41-1.31 5.397-1.415 12.63-1.354 6.112.053 6.898.012 7.141-.374.458-.725-.415-1.389-1.354-1.03-.995.38-13.54.726-13.18.363.145-.147 2.85-.419 6.011-.604 5.512-.323 5.73-.357 5.316-.814-.637-.704-.474-.726 2.563-.343 7.904.995 8.249 1.07 7.409 1.589-.515.318-.25.641 1.077 1.308.739.37 3.203 1.875 5.477 3.343 4.37 2.822 4.446 2.847 6.347 2.067.83-.34 3.238.49 3.238 1.117 0 .353 1.31 1.017 1.706.865 1-.384.37-1.075-2.153-2.363-3.175-1.622-5.785-3.177-6.454-3.846-.63-.63-.947-.64-1.269-.037-.335.626.102 1.382.798 1.382.297 0 1.318.435 2.27.968l1.73.967-.715.374c-.8.419-1.058.288-7.054-3.553-4.873-3.122-5.02-3.362-1.432-2.322 2.403.696 2.836.695 2.255-.006-.866-1.043 8.358 3.899 12.29 6.584 1.251.855 2.16.839 2.066-.036-.093-.882.259-.74 1.91.77l1.494 1.364 4.415.737c10.264 1.712 9.958 1.55 7.59 4.024-.945.99-1.72 1.948-1.72 2.132 0 .183-.357.597-.793.92-.77.569-1.04 1.1-.558 1.1.13 0 1.587-1.31 3.24-2.91 3.49-3.382 3.171-3.297 7.234-1.943 11.318 3.772 21.304 12.61 21.304 18.855 0 .144-.982-.446-2.182-1.31-2.968-2.136-5.06-3.187-8.723-4.382-2.956-.964-3.08-1.034-2.665-1.492.51-.563.243-.954-.776-1.14-.371-.066-2.011-.717-3.645-1.445-3.142-1.4-3.892-1.568-4.138-.926-.255.666-.854.451-2.165-.775-.883-.826-1.642-1.267-2.568-1.494-.724-.176-1.464-.437-1.645-.579-.223-.174-.549-.113-1.01.189-.895.586-.445 1.257.692 1.03 1.423-.285 2.597.147 4.103 1.511 1.54 1.395 1.912 1.519 2.837.946.632-.392 2.306-.122 2.306.37 0 .142-.089.243-.198.226-1.06-.168-1.186.698-.132.91.49.099.833.01 1.052-.276.331-.431 3.52.62 3.939 1.298.326.528-.238.477-4.827-.444-7.588-1.522-9.046-1.596-18.848-.946-14.019.929-16.281 1.278-16.603 2.562-.37 1.472-.674 1.45 14.19 1.027 7.492-.213 14.13-.39 14.749-.392 1.001-.003 1.305.16 2.727 1.468.88.81 1.779 1.435 1.996 1.39.647-.136.36-.53-1.606-2.2l-1.868-1.588-13.075.352c-12.404.333-15.204.293-14.67-.211.245-.23 3.414-.486 15.382-1.242 9.713-.614 17.98.427 26.92 3.39 2.749.91 6.815 2.97 6.054 3.066-.273.035-2.819.373-5.657.752-4.62.617-6.458.712-17.594.905-6.84.119-14.175.303-16.3.41l-3.866.196-2.721-2.552-2.722-2.552h-2.74c-1.507 0-2.74-.046-2.74-.103 0-.84 4.004-4.12 5.225-4.28 2.004-.264 1.909-.911-.132-.901l-1.521.008-6.213 6.21-6.213 6.21h-5.706c-3.75 0-5.806-.099-5.994-.287-.529-.529-1.531-.173-1.618.574-.126 1.08.603 1.521 1.583.959.677-.388 1.597-.452 6.502-.452h5.714l3.63-3.572 3.629-3.572h6.104l2.656 2.514 2.655 2.513h6.873c7.512 0 7.785.058 5.765 1.235l-3.97 2.317c-4.409 2.578-7.38 5.605-9.163 9.34-.974 2.039-1.171 2.148-1.452.806l-.18-.866-.409.76c-.924 1.723-1.484 3.851-1.644 6.252l-.168 2.513-1.049-1.389c-1.871-2.478-1.979.35-.246 6.492 2.417 8.57 2.472 9.678.376 7.604-2.022-2-2.009-2.028-1.498 3.249.544 5.616.55 9.295.015 11.903-.543 2.652-.724 2.777-1.254.87a26 26 0 0 0-1.134-3.117l-.694-1.534-.483 1.455c-.265.8-1.2 3.719-2.078 6.486-2.076 6.546-2.179 6.684-2.768 3.685-.615-3.13-.596-3.124-1.952-.607-6.166 11.438-8.16 14.52-8.404 12.991m2.241-3.75c.15-.281.205-.69.12-.908-.087-.23.569-1.55 1.554-3.128 2.403-3.845 3.912-6.382 5.18-8.706l1.094-2.007v-11.871l-2.646-2.636-2.646-2.636v-18.204l5.993-5.914c3.296-3.252 6.123-6.13 6.284-6.394s.53-.86.82-1.326l.53-.845 7.213-.002c5.008 0 7.363.092 7.704.305.997.623 2.074-.494 1.26-1.307-.364-.365-.564-.382-1.311-.112-.603.218-3.173.323-8.139.331l-7.257.013-1.05 1.509c-.579.83-3.764 4.255-7.078 7.612l-6.027 6.103v18.373l2.778 2.715 2.778 2.715v11.275L99.6 191.36a373 373 0 0 1-2.474 4.272c-.729 1.236-1.968 3.346-2.754 4.687s-1.631 2.508-1.879 2.593c-.247.085-.525.393-.617.683-.35 1.104 1.175 1.802 1.718.787zm-1.993-3.346c.523-.523.53-1.013.019-1.436-.333-.277-.397-1.362-.397-6.718v-6.389l-2.778-2.768-2.778-2.77v-2.072c0-1.14.128-2.313.286-2.606.504-.943-.47-1.755-1.195-.997-.386.402-.45.605-.216.692.235.088.331.903.331 2.81v2.685l2.67 2.678 2.67 2.68.148 5.864c.113 4.44.065 6.119-.196 6.909-.51 1.546.408 2.466 1.436 1.438m2.967-3.687c.084-.22-.04-.692-.274-1.05-.37-.567-.42-1.674-.379-8.51l.047-7.859-4.015-3.918-4.016-3.92v-4.714c0-3.035.103-4.816.287-5.001.41-.409.196-1.433-.37-1.776-.796-.485-1.662.75-1.113 1.588.324.494.403 1.565.403 5.456v4.841l3.968 3.963 3.97 3.962v7.726c0 4.866-.099 7.788-.265 7.89-.298.184-.36 1.273-.089 1.544.34.34 1.693.177 1.846-.222m-9.298-35.85c.09-.145.216-.264.28-.264s.117.12.117.265-.126.264-.28.264-.207-.119-.117-.264m3.59 33.593c.541-.29.692-1.17.246-1.446-.15-.092-.264-1.402-.264-3.024v-2.86l-2.778-2.755-2.778-2.755v-15.086L82.094 166l-1.19-1.169v-5.612l4.41-4.215c2.426-2.318 4.658-4.337 4.96-4.488a1.03 1.03 0 0 0 .551-.928c0-.927-1.186-.922-1.635.008-.176.363-2.249 2.566-4.607 4.894-4.821 4.76-4.75 4.628-4.596 8.6.076 1.958.093 2 1.29 3.245l1.214 1.261v14.95l2.657 2.641 2.658 2.64-.084 2.911c-.046 1.601-.177 3.104-.291 3.34-.38.784.581 1.47 1.427 1.017zm8.052-1.313c.092-.291.09-.773-.004-1.07-.167-.525 1.287-2.69 2.177-3.243.567-.353.411-1.45-.235-1.655-.704-.224-1.251.41-1.096 1.272.075.42-.288 1.072-1.239 2.225-1.105 1.339-1.314 1.752-1.173 2.315.215.857 1.313.966 1.57.156m7.086-2.514c-.115-1.576-.056-5.575.094-6.413.117-.654.048-.898-.293-1.029-.693-.265-1.32.503-.96 1.176.363.679.385 5.25.026 5.472-.304.188-.357 1.275-.077 1.555.503.503 1.267.023 1.21-.76m-23.676-.714c.517-.517.364-1.266-.31-1.522-.346-.132-1.405-1.349-2.353-2.706a347 347 0 0 0-3.738-5.212c-2.828-3.858-2.821-4.327.11-7.33 2.016-2.066 2.116-2.224 2-3.169-.075-.6.035-1.302.277-1.77.366-.707.36-.821-.058-1.283-.851-.941-1.383-.047-1.24 2.085l.12 1.777-2.008 1.978-2.007 1.978v1.736c0 1.735 0 1.736 1.799 4.107 2.83 3.733 5.874 8.319 5.874 8.853 0 .734.974 1.038 1.534.478m16.213-1.985c.15-.393.802-1.281 1.449-1.973l1.177-1.258v-2.245c0-1.234.119-2.318.264-2.408.776-.48-.35-2.138-1.223-1.803-.498.191-.768 1.373-.398 1.743.647.646.37 4.565-.387 5.464-1.187 1.41-1.263 1.163-1.081-3.47l.169-4.283-3.545-3.588c-2.298-2.326-3.576-3.82-3.633-4.25-.11-.826-1.213-1.074-1.717-.385-.385.527-.039 1.444.545 1.444.194 0 1.904 1.552 3.801 3.448l3.449 3.449.088 4.82c.05 2.65-.006 4.968-.122 5.15s-.137.45-.047.595c.309.5.94.265 1.211-.45m1.832-8.546a.265.265 0 0 1 .529 0 .266.266 0 0 1-.265.265.265.265 0 0 1-.264-.265m-10.054-9.525c0-.145.126-.264.28-.264s.207.119.117.264-.216.265-.28.265-.117-.12-.117-.265m21.166 12.965c0-1.976.096-2.91.297-2.91.206 0 .214-.102.026-.331-.15-.182-.313-.627-.363-.99-.054-.385-.295-.697-.583-.752-.827-.158-1.052.34-.574 1.267.345.666.419 1.447.354 3.735-.075 2.61-.037 2.892.38 2.892.413 0 .463-.316.463-2.911m-17.376.687c.2-.52-.088-1.478-.448-1.493-.532-.02-2.617-2.641-2.794-3.51-.18-.884-1.117-1.306-1.67-.753-.4.4-.003 1.627.531 1.642.639.017 2.707 2.676 2.707 3.479 0 1.018 1.333 1.523 1.674.635m14.659-.864c.056-.17-.56-.992-1.369-1.827l-1.47-1.518v-4.294l-2.513-2.503-2.514-2.503v-3.061c0-1.847.114-3.175.287-3.348.58-.58.172-1.539-.655-1.539-.982 0-1.481.71-1.02 1.45.214.342.33 1.613.33 3.612v3.085l2.646 2.688 2.645 2.69v2.115c0 2.07.02 2.135.926 3.013.511.495.926 1.161.926 1.485 0 .847 1.523 1.236 1.78.455m-8.66-19.667a.265.265 0 0 1 .53 0 .265.265 0 0 1-.53 0m-27.823 19.214c.052-.274-.051-.77-.229-1.102-.217-.405-.272-1.242-.166-2.545.086-1.067.16-2.598.164-3.4.01-1.594 1.823-4.23 2.911-4.23.566 0 .88-.66.653-1.375-.25-.786-1.192-.477-1.771.582-.279.51-1.032 1.466-1.675 2.126l-1.168 1.2v3.708c0 2.397-.105 3.813-.298 4.006-.171.172-.224.595-.123.996.214.853 1.541.88 1.702.034m-2.067-1.893c.282-.34.222-.527-.364-1.14-.386-.402-.702-.995-.702-1.318 0-.37-.246-.698-.663-.888-.927-.423-1.037-.168-.408.951.298.531.542 1.309.542 1.729 0 1.037.956 1.436 1.595.666m7.969-2.164c-.06-1.363.011-2.192.198-2.307.388-.24.373-1.286-.025-1.684-.963-.963-2.155.291-1.389 1.46.35.534.42 1.079.32 2.48-.079 1.099-.018 1.905.156 2.08.627.626.832.064.74-2.03m-.833-3.25c0-.146.112-.265.25-.265.136 0 .322.119.412.265.09.145-.023.264-.25.264-.226 0-.412-.119-.412-.264m31.575 4.189c.203-.323.175-.564-.103-.9-.264-.316-.353-.94-.29-2.022.088-1.544.072-1.585-1.217-3.07l-1.307-1.505-.157-7.75-.157-7.75 5.473-5.462c8.197-8.179 8.044-8.072 10.09-7.051.821.41.886.404 1.42-.131 1.001-1 .22-1.371-2.414-1.147l-2.198.187-6.6 6.602-6.598 6.602v16.013l1.485 1.663c1.548 1.735 1.899 3.63.895 4.84-.224.27-.224.505 0 .924.35.653 1.257.63 1.678-.043m1.763-5.822c0-3.056.077-3.836.42-4.215.826-.912-.419-2.33-1.36-1.55-.438.364-.515 1.464-.119 1.709.157.097.265 1.723.265 3.984 0 3.22.062 3.821.397 3.821.334 0 .397-.593.397-3.75m-50.853 2.903c.174-.175.317-.513.317-.75 0-.238 2.911-3.4 6.47-7.025l6.468-6.592.014-7.607c.007-4.278.116-7.607.25-7.607.4 0 .57-.805.282-1.342-.158-.295-.552-.51-.934-.51-.89 0-1.27.955-.724 1.817.342.538.371 1.641.205 7.805l-.193 7.18-6.382 6.5c-3.51 3.575-6.59 6.578-6.845 6.672-.452.168-.645 1.242-.286 1.6.28.28 1.012.204 1.358-.141m12.62-30.375c-.09-.145-.037-.264.117-.264s.28.119.28.264-.052.265-.116.265c-.065 0-.19-.12-.28-.265m-3.46 28.415c.233-.09.42-.47.422-.86.004-.544.946-1.661 4.234-5.021l4.228-4.322.01-3.087.011-3.086 3.01-3.109c1.656-1.71 3.135-3.109 3.288-3.109.507 0 .897-1.05.546-1.472-.496-.598-.995-.449-1.45.432-.231.447-1.723 2.157-3.314 3.8l-2.894 2.988v6.213l-4.168 4.292c-2.292 2.36-4.435 4.43-4.762 4.597-1.218.625-.444 2.236.838 1.744m-8.736-2.155c.205-.254 2.586-2.729 5.292-5.499l4.92-5.036.007-8.854.007-8.855.923-.992c.507-.546 1.075-.992 1.263-.992.967 0 1.303-1.394.446-1.852-.714-.382-1.587.096-1.589.869 0 .322-.417 1.039-.926 1.593l-.925 1.007v17.57l-4.696 4.648c-2.583 2.556-5.024 4.784-5.424 4.952-.767.322-.954 1.043-.41 1.587.431.431.675.4 1.113-.146m12.064-31.302c0-.154.12-.207.265-.117s.264.216.264.28-.119.117-.264.117-.265-.126-.265-.28m24.002 30.787c.087-.228.03-.62-.127-.872-.184-.295-.316-3.52-.372-9.09l-.087-8.634 5.542-5.547c3.048-3.051 5.774-5.582 6.057-5.625.893-.135 1.085-1.237.27-1.547-.72-.274-1.418.043-1.418.644 0 .165-2.557 2.856-5.682 5.978l-5.682 5.677-.082 9.005c-.044 4.953-.175 9.255-.291 9.56-.302.797.462 1.535 1.187 1.147.289-.155.597-.468.684-.696m-38.333-.044c.049-.345-.04-.755-.199-.913-.187-.188-.287-2.162-.287-5.697v-5.409l2.68-2.722 2.678-2.723v-1.732c0-1.147.123-1.834.364-2.034.99-.822-.09-2.432-1.224-1.825-.554.297-.73 1.433-.264 1.72.145.09.262.9.258 1.802l-.006 1.638-2.64 2.717-2.64 2.718v5.538c0 3.558-.106 5.773-.299 6.195-.432.95-.12 1.538.761 1.436.535-.061.753-.25.818-.71m8.997.26c.195-.123.493-.473.662-.776.168-.304 1.944-2.269 3.944-4.367l3.638-3.815v-5.196l2.448-2.53c1.346-1.391 2.71-2.627 3.03-2.746.615-.228 1.02-1.05.742-1.501-.33-.533-1.17-.248-1.747.593-.325.473-1.694 1.996-3.043 3.384l-2.452 2.524.15 2.505.149 2.505-3.76 3.894c-2.068 2.141-3.84 3.882-3.937 3.869a.915.915 0 0 0-.83 1.506c.367.44.514.463 1.006.151m41.764-.199c.092-.237.028-.652-.14-.922-.41-.657-.428-10.59-.02-10.998.409-.409.196-1.432-.37-1.776-.861-.524-1.615.71-1.073 1.758.351.68.41 1.723.356 6.393-.07 6.18.326 7.946 1.247 5.545m4.971-1.145c.26-.421-1.68-5.983-2.274-6.521-.563-.51-.623-7.545-.086-10.113.176-.844.153-.877-.554-.794l-.737.087.06 5.424c.056 4.921.108 5.474.565 5.963.518.553 1.41 3.033 1.73 4.812.255 1.406.823 1.907 1.296 1.142m-10.233-1.122c.309-.309.438-1.326.198-1.565-.066-.066-.167-2.875-.225-6.243l-.105-6.122 5.715-5.683c3.143-3.126 6.063-5.995 6.488-6.377.6-.537.703-.764.458-1.01-.49-.49-.966-.074-7.515 6.56l-6.02 6.098v6.388c0 3.974-.1 6.45-.264 6.552-.598.37-.079 1.72.661 1.72.16 0 .434-.143.609-.318m-43.321-.22c.281-.151.513-.42.516-.596.002-.177 1.61-1.983 3.572-4.014l3.567-3.694V141.98l10.474-10.415 10.474-10.414 2.617.029c2.392.027 2.631-.016 2.783-.496.258-.81-1.178-1.422-1.628-.693-.125.2-.773.237-2.03.113l-1.847-.182-4.412 4.385-4.412 4.384h-7.317c-4.592 0-7.377-.098-7.48-.264-.58-.94-1.984.335-1.455 1.323.297.554 1.432.73 1.72.264.102-.165 2.67-.264 6.826-.264h6.663l-5.885 5.889-5.885 5.889-.007 9.655-.007 9.655-3.326 3.506c-1.829 1.928-3.474 3.506-3.656 3.506-.68 0-1.271.97-.953 1.565.34.634.395.648 1.088.277m4.083-40.473c.09-.145.216-.264.28-.264s.117.119.117.264-.126.265-.28.265-.207-.12-.117-.265m29.508 40.077c.259-.312.266-.557.032-1.07-.205-.452-.303-3.085-.303-8.149v-7.481l1.984-1.894c1.69-1.611 2.426-2.697 1.832-2.697-.085 0-1.214.982-2.51 2.183l-2.357 2.182-.004 7.724c-.002 4.86-.102 7.784-.268 7.887-.298.184-.36 1.272-.089 1.543.322.322 1.341.183 1.683-.228m-43.955-.337c.156-.292.161-.626.013-.86-.468-.74-.27-1.548.477-1.958 2.112-1.156 2.036-.907 2.183-7.161l.133-5.635.979-.95c.538-.523 1.163-.95 1.389-.95.28 0 .41-.255.41-.811 0-1.061-1.697-1.112-1.75-.052-.016.326-.522 1.127-1.124 1.78l-1.095 1.187V164.3l-1.318.782c-1.13.67-1.318.9-1.323 1.61-.003.455-.183.975-.402 1.157-.479.397-.507.842-.08 1.27.467.466 1.215.386 1.508-.16m3.59-1.441c.198-.473.668-1.149 1.045-1.501.663-.622.684-.742.684-3.832v-3.19l2.58-2.591 2.58-2.59-.08-2.473-.078-2.472 1.336-1.462 1.335-1.46v-1.852c0-1.097.156-2.15.382-2.587.518-.999.117-1.768-.863-1.655-.637.074-.701.176-.63 1.008.045.51.141 1.82.215 2.91l.133 1.985-1.338 1.313-1.339 1.313v5.055l-2.65 2.642-2.652 2.641.035 3.102c.038 3.302-.394 4.478-1.742 4.743-.734.144-1.1.891-.682 1.394.58.698 1.332.506 1.729-.441m37.382-3.925c.038-2.514.188-4.58.357-4.906.658-1.267-.962-2.297-1.717-1.092-.215.343-.202.603.051 1.009.225.359.397 2.086.503 5.036.216 6.022.714 5.993.806-.046m-30.687.398c.038-.861.211-1.842.384-2.179.401-.782-.008-1.504-.852-1.504-.836 0-1.287.763-.858 1.45.18.29.329 1.223.329 2.074 0 2.53.883 2.671.997.16m-.733-2.757a.265.265 0 0 1 .53 0 .265.265 0 0 1-.53 0M47.3 165.205c0-.146-.052-.265-.116-.265-.065 0-.19.12-.28.265s-.038.264.116.264.28-.119.28-.264m-9.685-.948c.088-.23.16-.591.16-.803 0-.211.752-1.422 1.671-2.69a404 404 0 0 0 2.91-4.073l1.24-1.768v-3.065c0-1.983.116-3.25.329-3.591.41-.657.009-1.412-.816-1.535-.837-.125-1.351 1.088-.745 1.758.35.387.438 1.047.438 3.277v2.792l-2.918 4.103c-1.622 2.281-3.15 4.164-3.44 4.24-.51.134-.74 1.2-.344 1.597.336.337 1.355.174 1.515-.242m5.187-16.515a.265.265 0 0 1 .53 0 .265.265 0 0 1-.53 0m5.292 13.134c0-1.974.112-3.35.287-3.525.54-.54.172-1.532-.6-1.621-1.026-.119-1.478.79-.862 1.731.383.583.424 1.082.272 3.285-.118 1.71-.08 2.782.11 3.139.565 1.055.793.19.793-3.009m-.661-4.138c-.09-.145.029-.264.264-.264s.355.119.265.264-.21.265-.265.265-.174-.12-.264-.265m35.69 7.254c.088-.23.164-1.212.167-2.182l.007-1.765 2.121-2.182c1.167-1.201 2.227-2.183 2.356-2.183.44 0 1.044-.809.894-1.199-.172-.448-1.415-.535-1.415-.098 0 .16-1.131 1.457-2.514 2.884l-2.513 2.595v2.098c0 1.154.079 2.178.176 2.275.29.29.55.202.721-.242zm-43.363-.048c.145-.107.558-.611.917-1.12 4.874-6.92 8.994-12.565 11.727-16.074l1.907-2.447h1.204c.663 0 1.339.134 1.503.298.38.38 1.554.094 1.754-.428.408-1.064-1.033-1.888-1.912-1.092-.305.275-.95.428-1.81.428h-1.336l-1.493 1.984c-1.461 1.941-2.01 2.377-2.01 1.596 0-.237.155-.329.397-.236.276.106.396-.02.396-.414 0-.701-.575-.949-1.302-.56-.705.377-.702 1.171.005 1.83l.555.517-2.094 2.735a157 157 0 0 0-3.65 4.983c-2.382 3.444-4.649 6.436-5.237 6.912-.766.62-.307 1.665.479 1.088m21.246-.38c.385-.385.418-1.44.053-1.667-.366-.225-.334-2.94.041-3.54.437-.7.091-1.41-.635-1.307-.575.082-.594.168-.503 2.367.06 1.477-.01 2.346-.199 2.463-.655.405-.15 2.002.634 2.002.16 0 .434-.143.609-.318m17.629-.098c.518-.518.521-.763.018-1.266-.254-.255-.395-.902-.393-1.805l.004-1.408 5.619-5.689 5.619-5.688 3.499-.05 3.499-.048 5.232-5.172 5.232-5.172 2.432-.005c1.341-.003 2.505.114 2.595.26.24.387 1.342.323 1.692-.099.642-.772-.365-1.721-1.297-1.223-.27.145-1.717.264-3.213.264h-2.721l-5.186 5.163-5.186 5.162-9.772-.07-9.77-.069-.074-3.488-.074-3.489 2.518-2.53 2.519-2.531h6.997c4.122 0 7.289.11 7.707.27.824.313 1.44-.04 1.44-.827 0-.589-1.214-.98-1.66-.535-.206.207-2.532.298-7.582.298h-7.285l-2.716 2.707-2.717 2.708v7.8l.848.44c.68.351 1.277.405 3.014.271 1.191-.091 3.617-.088 5.392.007l3.225.174-5.285 5.316-5.286 5.316-.126 2.428c-.148 2.85.216 3.606 1.242 2.58m-32.918-1.651c.658-.533.562-1.465-.18-1.75-.841-.323-1.733 1.126-1.137 1.845.414.498.601.485 1.317-.095m-.666-.579c-.09-.146-.037-.265.117-.265s.28.12.28.265-.052.265-.116.265c-.065 0-.19-.12-.28-.265m54.21-.859c.215-.342.205-.599-.038-.989-.181-.29-.329-1.338-.329-2.33v-1.804l6.628-6.721 6.628-6.721 4.143.075c2.279.041 4.356.19 4.617.329 1.053.563 2.065-.846 1.152-1.604-.277-.23-.524-.238-.909-.032-.313.168-2.286.283-4.843.283h-4.315l-6.948 6.943-6.947 6.944v1.835c0 1.01-.14 2.223-.311 2.697-.51 1.41.704 2.314 1.472 1.095m-35.71.17c.453-.175.588-1.428.153-1.428-.381 0-.36-16.732.023-17.114.468-.468.178-1.53-.443-1.618-.826-.118-1.316.601-.952 1.399.489 1.073.41 17.011-.088 17.508-.765.766.19 1.68 1.307 1.252m43.81-4.647c0-.111-.233-.326-.517-.478-.577-.31-2.092 1.792-1.722 2.39.179.29 2.239-1.47 2.239-1.912m4.413.772c.116-.182.227-.828.246-1.436.074-2.356 3.704-7.806 5.527-8.298.964-.26.868-1.577-.115-1.577-.544 0-.81.13-.81.396 0 .218-.817 1.26-1.814 2.315-2.088 2.209-2.22 2.426-3.108 5.148-.363 1.113-.848 2.16-1.078 2.328-.339.248-.36.415-.11.88.34.637.937.752 1.262.244m-58.706-.78c.175-.175.318-.525.318-.779 0-.253.536-1.004 1.19-1.668l1.191-1.208v-1.967c0-1.082.119-2.041.265-2.13.743-.46.281-1.756-.596-1.671-.917.088-1.349 1.022-.75 1.621 1.303 1.303.036 4.472-2.59 6.48-.47.36-.583.628-.446 1.06.2.632.916.764 1.418.261m2.17-8.679c0-.145.119-.265.264-.265s.265.12.265.265-.12.265-.265.265a.265.265 0 0 1-.264-.265m18.79 7.528c.14-.37.971-1.335 1.845-2.145 1.484-1.373 1.976-2.208 1.302-2.208-.158 0-1.031.714-1.94 1.588-.982.942-1.886 1.587-2.226 1.587-.453 0-.573.157-.573.75 0 1.295 1.145 1.604 1.592.428m-28.368-2.818c.175-.175.317-.591.317-.926 0-.353 1.413-2.6 3.374-5.366l3.373-4.758 1.77-.005c.974-.003 1.844.114 1.934.26.464.75 2.162-.29 1.84-1.127-.202-.528-1.133-.769-1.733-.447-.258.138-1.252.25-2.208.25-1.335 0-1.83.108-2.123.464-.477.576-2.28 3.105-5.036 7.06-1.164 1.671-2.257 3.043-2.43 3.05-.468.015-.702 1.038-.338 1.478.388.467.836.49 1.26.067m11.165-11.59a.265.265 0 0 1 .53 0c0 .146-.12.266-.265.266a.265.265 0 0 1-.265-.265m54.461 11.675c.467-.296.29-1.46-.237-1.56-.477-.092-1.192 1.07-.926 1.502.213.345.675.368 1.163.058M74.29 150.79c0-.35-.12-.71-.265-.8-.164-.101-.264-2.578-.264-6.552v-6.39l6.938-6.956 6.939-6.957h6.665l2.595 2.436c2.425 2.275 2.665 2.433 3.647 2.394 1.163-.046 2.32-.669 2.32-1.249 0-.656-.512-.722-1.23-.159-1.204.948-4.915-1.254-6.522-3.871-.158-.258-1.182-.345-4.045-.345h-3.833L80.1 129.54l-7.134 7.197v6.545c0 4.079-.1 6.607-.265 6.71-.431.266-.301 1.408.192 1.683.648.363 1.396-.11 1.396-.884m6.35-.8c.238-.287.869-.397 2.281-.397 1.559 0 1.952-.08 1.952-.397 0-.395-.052-.4-4.96-.512-.572-.013-.748.119-.818.615-.139.983.912 1.453 1.545.691m-32.147-6.538c1.31-1.911 2.66-3.811 3-4.223l.619-.748h6.08c3.343 0 6.279.105 6.524.233.706.37 1.69-.125 1.589-.8-.124-.829-.877-1.231-1.536-.82-.38.238-2.264.329-6.823.329h-6.297l-2.72 3.806c-1.496 2.094-3.01 4.08-3.364 4.412-.806.757-.826 1.31-.049 1.296.462-.008 1.13-.792 2.977-3.485m43.392 1.908c.09-.146 1.041-.265 2.114-.265h1.951l5.074-5.065 5.073-5.065 2.594.158c2.105.128 2.62.087 2.738-.219.21-.545-.597-1.265-1.124-1.004-.236.117-1.394.22-2.573.23l-2.144.019-5 5.082-5 5.083-1.53-.006c-.936-.004-1.777-.168-2.165-.422-1.062-.695-2.431.683-1.552 1.562.271.272 1.36.21 1.544-.088m-12.621-.317c.385-.386.419-1.441.053-1.667-1.047-.647-.273-2.99 1.521-4.602l1.786-1.606 5.04-.005c3.277-.003 5.141.095 5.328.282.401.401 1.428.2 1.771-.348.507-.809-.408-1.448-1.506-1.051-.573.207-2.675.318-6.015.318h-5.135l-1.924 1.912-1.924 1.911v1.513c0 .832-.12 1.586-.265 1.676-.633.39-.102 1.984.661 1.984.16 0 .434-.143.609-.317m-33.768-.385c.266-.241.483-.591.483-.778 0-.326 4.207-6.778 4.85-7.437.326-.335 15.428-.49 17.415-.178.84.131.992.072 1.157-.45.28-.88-1.125-1.796-1.593-1.038-.104.167-3.227.264-8.495.264H50.98l-.682.728c-.375.4-1.242 1.56-1.926 2.58-2.737 4.075-3.333 4.875-3.641 4.884-.546.017-.955 1.044-.59 1.482.41.495.76.48 1.354-.057m37.393-1.68c.101-.164 2.55-.264 6.465-.264 5.216 0 6.358-.067 6.624-.388.282-.339-.528-.4-6.383-.49-3.689-.055-7.076-.189-7.528-.297-.907-.217-1.317.271-1.018 1.212.169.534 1.545.704 1.84.228m-1.19-.528c0-.146.125-.265.28-.265.153 0 .206.12.116.265s-.216.264-.28.264-.117-.119-.117-.264m37.275-6.59c.733-.465.132-1.612-.844-1.612-.696 0-1.142-.282-2.3-1.456-1.4-1.416-2.116-1.797-2.118-1.124-.001.381 4.233 4.428 4.63 4.425.146 0 .43-.106.632-.234m11.87-.287c5.682-.003 6.152-.038 6.152-.466 0-.431-.475-.456-7.024-.368l-7.023.095-1.51-1.441c-1.778-1.695-4.698-2.304-4.504-.939.076.538.231.603 1.444.603 1.267 0 1.465.094 2.91 1.39 1.383 1.24 1.652 1.377 2.478 1.26.51-.072 3.694-.132 7.077-.134m-80.747-.825c.3-.275.675-.5.832-.5.38 0 .607-.642.607-1.725 0-3.46 13.591-16.062 17.042-15.802.676.05 1.214-.397 1.214-1.009 0-.724-.939-.899-1.55-.288-.285.285-1.549.91-2.808 1.389l-2.29.87-5.93 6.038c-6.618 6.74-6.472 6.551-6.472 8.36 0 1.468-.234 1.756-1.628 2.007-.88.158-1.283.553-1.283 1.26 0 .407 1.642-.028 2.266-.6m89.81.426c.372-.45 1.471-.534 1.72-.133.247.4 1.082.317 1.467-.147.316-.381 5.092-.393 11.761-.028.682.037.794-.05.794-.619 0-.572-.106-.652-.794-.596l-2.805.23c-1.943.16-2.016.145-2.171-.447-.148-.567-.195-.581-.635-.19-.452.402-4.131.73-8.074.717-1.498-.005-2.322.382-2.322 1.09 0 .615.593.684 1.058.123m-34.793-5.15 4.498-4.5 1.37-.004c1.16-.003 1.4-.09 1.549-.56.265-.836-.279-1.228-.91-.656-.375.339-.74.42-1.317.293-.755-.165-1.066.087-5.68 4.606-2.684 2.63-5.011 4.78-5.172 4.78s-.291.301-.291.669c0 1.105 1.005.324 5.953-4.627zm53.53 3.9c-.068-.476-.484-.723-2.201-1.303-3.777-1.277-4.164-.88-.728.745 2.732 1.292 3.043 1.352 2.93.558m-104.191-.081c.259-.313.266-.557.032-1.071-.167-.366-.304-.868-.304-1.114 0-.576 10.834-11.433 11.409-11.433.58 0 1.123-.691.933-1.188-.22-.571-1.513-.516-1.666.072-.068.259-2.677 2.947-5.797 5.974-4.561 4.424-5.674 5.64-5.68 6.209-.005.388-.184.938-.398 1.22-.84 1.112.583 2.4 1.47 1.33m3.307-.665c.112-.181 2.445-.263 6.79-.24 6.747.038 7.23-.03 7.05-.977-.121-.636-1.282-.818-1.599-.251-.29.519-11.522.644-12.032.134-.503-.503-1.53-.175-1.628.522-.123.873.988 1.51 1.42.812m68.055-.027c.452-.45 11.568-.673 12.089-.242.588.489 1.473.095 1.473-.654 0-.822-.869-1.332-1.327-.78-.42.506-11.462.58-12.55.085-1.089-.496-2.224.768-1.416 1.576.402.402 1.336.41 1.731.015m22.294-.756c.409-.764 2.003-.724 2.653.067.396.482.58.54.968.302 1.438-.879.259-1.446-4.03-1.937-1.024-.117-2.238-.407-2.698-.645-1.027-.531-1.656-.554-1.656-.06 0 .384 2.813 1.476 3.822 1.484.448.003.474.049.147.26-.218.141-.784.259-1.257.26-.473.003-.86.104-.86.225 0 .795 2.489.833 2.91.044m-49.196-.009c.624-.333.674-1.268.08-1.496-.237-.09-.652-.027-.922.141-.345.215-2.959.306-8.778.306-6.877 0-8.375.067-8.801.389-.606.458-1.505.405 9.385.56 4.135.06 7.578.168 7.651.241.216.216.837.153 1.385-.14m64.01-.12c.375-.452.18-1.188-.32-1.205-.187-.006-1.038-1.081-1.891-2.389-1.692-2.593-1.99-2.842-6.918-5.792-3.295-1.972-3.569-2.085-3.569-1.476 0 .212.863.883 1.918 1.492 4.6 2.653 5.849 3.543 6.996 4.985 1.247 1.567 2.199 3.207 2.199 3.79 0 .873 1.032 1.261 1.584.596m-2.379-.744c0-.85-1.685-2.008-2.897-1.99-.938.014-1.287-.115-1.72-.632-.812-.972-6-3.766-9.935-5.35-8.507-3.425-11.113-3.952-11.113-2.246 0 .153.245.103.552-.112.658-.461 5.239.963 9.967 3.099 1.493.674 2.785 1.226 2.87 1.226.456 0 6.666 3.576 7.117 4.098.37.429.906.65 1.788.738.812.082 1.563.368 2.116.807.975.775 1.255.855 1.255.362M59.005 129.95c.214-.327.911-1.101 1.549-1.72l1.159-1.124h6.428c5.395 0 6.53.067 7.062.415.59.386.672.377 1.181-.132 1.074-1.074-.005-2.303-1.346-1.533-.693.397-1.637.457-7.322.465l-6.527.009-1.807 1.729c-1.126 1.077-1.753 1.872-1.662 2.108.216.564.842.458 1.285-.217m33.934.33c.099-.16 1.984-.264 4.77-.264h4.605l1.663-1.735c.914-.954 1.702-1.847 1.75-1.984.214-.604-.784-.166-1.588.697-1.889 2.028-1.905 2.033-6.603 1.984-2.493-.026-4.497-.167-4.886-.344-.929-.423-1.908.49-1.448 1.35.313.584 1.44.777 1.737.297m-.926-.809c0-.154.119-.206.264-.116s.265.216.265.28-.119.117-.265.117c-.145 0-.264-.127-.264-.28m-6.158-.332c1.486-2.779 5.036-4.646 6.917-3.64.601.323 1.17-.044 1.048-.674-.088-.45-.319-.489-2.473-.407l-2.377.09-1.852 1.792c-1.019.985-2.063 1.865-2.321 1.954-.963.334-.917 1.762.057 1.762.331 0 .709-.33 1.001-.877m3.247.622c0-.14.37-.676.822-1.19l.82-.936h2.487c2.274 0 2.486-.043 2.486-.507 0-1.134-4.705-.918-5.966.274-.443.42-.91.762-1.037.762-.594 0-1.18.866-.917 1.356.273.509 1.305.7 1.305.24m68.79-1.461c.434-.524.149-1.194-.51-1.194s-3.232-1.38-6.293-3.375c-1.4-.912-2.323-1.042-2.323-.326 0 .22.293.433.661.484.364.05.84.246 1.059.437.503.44 5.037 3.044 5.299 3.044.108 0 .391.298.63.662.491.75 1 .843 1.476.268m-36.51-1.982c2.837-.002 5.513.025 5.945.061.596.05.812-.059.89-.446.145-.73-.67-1.27-1.36-.9-.323.172-3.084.339-6.91.417-3.503.07-6.473.224-6.599.34-.545.504.19.836 1.517.686.747-.084 3.679-.155 6.517-.158m16.19-.94c.466-1.02-.023-1.364-1.328-.933-1.112.367-1.894.228-2.97-.53-.61-.429-1.48-.48-8.996-.537l-8.32-.063-.085.574c-.104.704.618 1.043 1.307.613 1.017-.636 15.303-.41 16.008.253.354.333 1.089.616 1.81.697.667.075 1.276.24 1.354.366.278.45.92.219 1.22-.44m-83.486-.391c.175-.363 2.083-2.35 4.24-4.418l3.921-3.758 3.043-1.245c1.673-.685 5.175-2.128 7.78-3.206 3.39-1.402 4.923-1.913 5.389-1.796.696.174 1.648-.452 1.648-1.085 0-.707-1.038-.97-1.804-.455-.736.494-9.795 4.328-13.28 5.62-2.947 1.093-3.047 1.164-7.374 5.315-2.198 2.109-4.19 3.835-4.428 3.837-.77.005-1.265 1.05-.743 1.572.582.583 1.215.432 1.608-.381m53.962-1.043c1.003-.938 1.824-1.831 1.824-1.984 0-.281 3.38-.651 6.88-.753l1.852-.054v-1.059c.001-.582-.099-1.28-.222-1.55-.138-.3-.113-.603.064-.78.431-.431.35-1.242-.125-1.242-.498 0-2.231 1.777-2.231 2.286 0 .508.268.449.975-.215.482-.453.612-.488.612-.165 0 .226-.179.56-.397.74-.514.427-.507.794.016.794.227 0 .339.12.249.265s-.64.264-1.222.264c-.638 0-.994-.105-.895-.264.217-.352-.04-.335-.745.05-.33.178-1.374.286-2.43.249l-1.852-.065-2.186 2.132-2.186 2.132h-5.702l-2.371-2.272c-1.305-1.25-2.16-2.205-1.9-2.122.325.103.544-.033.704-.44.129-.325.988-1.308 1.91-2.184l1.677-1.595 2.317.093 2.317.092 1.718 1.692c2.063 2.034 2.067 1.76-.05 3.627-1.711 1.508-1.74 1.521-3.392 1.521h-1.666l-1.35-1.476c-1.59-1.74-1.564-1.61-.542-2.73.925-1.012 1.13-.98.812.125-1.02 3.558 4.512 4.982 5.953 1.532 1.548-3.705-4.625-5.367-7.557-2.036-1.331 1.513-1.36 1.272.42 3.505l1.492 1.874 2.41-.002 2.41-.002 1.804-1.714c1.451-1.378 1.77-1.823 1.63-2.267-.164-.515-.099-.543.973-.41 3.648.454 4.266.47 4.488.12.38-.601.258-1.016-.3-1.016-.293 0-.773.148-1.067.33-.435.27-.576.263-.764-.04-.174-.28-.581-.328-1.674-.2l-1.443.17-2.088-1.846-2.089-1.847-2.652-.004-2.652-.004-2.11 2.14c-2.215 2.244-3.13 2.83-3.695 2.36-.435-.36-1.052.355-.822.953.125.327.367.392.994.267.769-.154 1.005.01 3.312 2.283l2.485 2.448h6.254zm-5.393-3.336c-.726-.508-.78-1.713-.104-2.325.657-.594 1.013-.552 1.777.212 1.378 1.378-.084 3.226-1.673 2.113m-36.968 4.381c.102-.165 2.723-.267 6.96-.272l6.798-.007 5.292-5.164c2.91-2.84 5.652-5.45 6.093-5.8.792-.629.898-.64 8.335-.806l7.532-.17 1.296.945c.713.52 1.43 1.215 1.595 1.546.36.722 1.42.805 1.838.142.351-.556-.188-1.207-1.153-1.393-.346-.066-1.053-.459-1.573-.871-.52-.413-1.108-.849-1.307-.968-.2-.12-3.885-.194-8.19-.165l-7.826.051-2.394 2.205c-1.317 1.212-4.09 3.879-6.16 5.926l-3.768 3.721-6.634-.093c-3.649-.051-6.706-.166-6.794-.254-.695-.694-1.832.206-1.516 1.2.167.527 1.29.689 1.576.227m49.232-1.176c.213-.848-.035-1.205-.837-1.205-.782 0-1.054.546-.649 1.302.41.767 1.284.71 1.486-.097m-3.223-.565c.274-.714.182-.905-.435-.9-.845.005-1.361.4-1.171.895.21.546 1.397.55 1.606.005m-36.644-1.037c1.275-1.193 2.892-1.642 3.335-.926.288.466 1.162.283 1.48-.31.444-.832-.986-1.812-1.48-1.013-.09.146-.735.265-1.433.265-1.16 0-3.991 2.147-3.991 3.026 0 .481.988-.012 2.09-1.042m-5.793.265c.211-.255.797-.397 1.634-.397 1.254 0 1.36-.06 2.774-1.588l1.47-1.587h6.439l1.838-1.852c1.01-1.02 1.975-1.852 2.143-1.852.552 0 .85-.63.606-1.277-.29-.768-1.032-.672-1.46.188-.173.345-1.065 1.386-1.984 2.313l-1.671 1.686H74.77l-1.367 1.432c-1.393 1.461-3.53 2.257-4.004 1.491-.453-.733-1.992-.099-1.992.82 0 .865 1.291 1.298 1.852.623m78.581.055c0-.48-9.778-4.01-10.13-3.657-.323.323.221.579 5.367 2.516 4.046 1.523 4.763 1.695 4.763 1.14m-25.89-.188c.116-.77.025-.877-.767-.9-.723-.022-.86.07-.86.57 0 .62 1.537.932 1.628.33m8.89-.153c1.8-.367.2-.64-3.754-.64-4.126 0-4.92.134-4.53.768.144.231 7.05.124 8.285-.128m18.462-1.181c.262-.424-.393-1.047-1.1-1.047-.876 0-6.51-2.291-6.889-2.801-.491-.661-1.543-.375-1.543.42 0 .553.141.675.865.745.476.045 2.44.718 4.366 1.494 3.8 1.533 4.047 1.601 4.301 1.189m-17.337-.391c0-.542-10.337-.471-10.517.072-.086.257 1.07.33 5.203.33 4.58 0 5.314-.055 5.314-.402m1.323-.911c0-.991-12.51-1.562-12.765-.582-.147.559-.113.563 5.581.639 3.15.042 6.056.104 6.456.137s.728-.054.728-.194m-62.177-.366c.728-.032.943-.161 1.006-.605.074-.52-.012-.554-1.093-.432-.645.073-1.383.015-1.639-.129-.702-.393-1.45-.092-1.45.583 0 .842.276 1.01 1.324.805.509-.1 1.342-.2 1.852-.222m22.136-1.187 2.425-.176 1.89-1.826 1.89-1.825 3.317.177 3.317.177 1.816 1.627 1.817 1.626 2.653.022c2.893.024 3.346-.209 2.397-1.228-.49-.526-.552-.533-1.01-.118-.346.313-.968.442-2.132.442h-1.643l-1.832-1.72-1.83-1.72-3.65.01-3.648.012-.924.79c-.508.433-.964.667-1.014.518s-.67-.272-1.379-.272c-.708 0-1.596-.14-1.972-.311-.56-.255-.758-.237-1.098.103-.92.92.499 2.298 1.466 1.423.276-.25.936-.42 1.62-.42h1.156l-.897.925c-.947.977-4.442 1.406-5.209.64-.722-.723-2.209.25-1.842 1.206.14.367.355.424 1.034.278.472-.1 1.948-.263 3.282-.36m-.176-2.954c0-.146.126-.265.28-.265s.207.119.117.265c-.09.145-.216.264-.28.264s-.117-.119-.117-.264m41.154 3.157c.311-.504-.075-.583-3.907-.793-9.401-.516-9.73-.516-9.73-.014 0 .393.302.47 2.05.526 1.128.036 3.718.159 5.755.273 5.576.311 5.644.311 5.832.008m1.115-1.372c-.12-.363-2.32-.622-6.153-.726-1.31-.035-2.739-.165-3.175-.288-.464-.13 1.426-.17 4.543-.093 4.952.121 7.18-.128 4.79-.535a795 795 0 0 0-7.481-1.204c-1.019-.158-2.383-.39-3.032-.516-.974-.188-1.287-.143-1.8.26-1 .787-.641.898 2.848.878 2.845-.016 3.011.004 1.19.144-1.6.123-2.098.251-2.04.527.063.292-.226.329-1.454.187-2.88-.332-2.849-.336-2.94.308-.047.328.013.605.132.616.12.01 1.17.07 2.333.132 1.165.061 3.546.212 5.292.335 5.154.363 7.072.356 6.947-.025m-61.716-.463c.092-.147 1.353-.266 2.86-.269l2.697-.005 2.38-2.232 2.382-2.232 1.638-.012c.901-.007 1.712.107 1.802.252.253.41 1.35.312 1.738-.154.685-.826-.922-1.959-1.69-1.191-.157.158-1.123.287-2.146.287h-1.86l-2.142 2.13-2.142 2.132-2.382.154c-1.979.128-2.498.078-3.071-.298-1.108-.726-2.52.614-1.607 1.526.271.271 1.36.21 1.543-.088m-1.055-.798c.091-.148.277-.2.412-.116.367.227.299.385-.166.385-.227 0-.338-.12-.246-.269m44.448.268c.325-.526 3.242-2.348 4.125-2.577.634-.164.901-.385.901-.746 0-.749-1.096-.818-1.805-.114-.317.314-1.322 1.055-2.233 1.646l-1.657 1.074-1.386-.873a809 809 0 0 0-8.662-5.366c-2.874-1.757-6.37-3.976-8.491-5.389-.976-.65-1.827-.614-1.827.077 0 .206.327.5.727.656 1.26.486 1.91.866 7.872 4.595 13.024 8.148 12.07 7.61 12.436 7.017m-56.804-.535c.481-.293.97-.475 1.085-.404.397.245 1.117-.512.935-.985-.179-.467-1.176-.65-1.176-.216 0 .132-.536.579-1.19.993-.655.413-1.19.84-1.191.95-.001.35.637.21 1.537-.338m4.923-1.476c.23-.089.419-.31.419-.493 0-.182.684-.593 1.52-.912.838-.32 4.16-1.711 7.384-3.093l5.861-2.511 9.286.079c7.052.06 9.286.003 9.286-.236 0-.594-.524-.628-9.773-.636l-9.268-.008-2.32 1.04c-1.275.572-2.617 1.13-2.98 1.239-.364.109-1.257.476-1.985.816-3.478 1.623-6.695 2.842-7.458 2.828-1.199-.023-1.802.682-1.253 1.466.432.617.614.676 1.281.42zm12.134-.1c.882-.004 1.296-.272 3.49-2.253l2.49-2.25h6.832c6.219 0 6.857-.04 7.12-.462.274-.438-.118-.459-7.138-.378l-7.427.085-2.185 2.098c-2.307 2.214-3.268 2.59-4.56 1.783-.606-.378-1.342.09-1.342.854 0 .557.45.8 1.191.64.291-.063.98-.116 1.53-.118m39.004-1.46c-.972-1.001-1.904-1.168-1.904-.34 0 .74 2.035 2.111 2.482 1.67.31-.304.222-.506-.578-1.33m-16.588-1.199c0-.15-.179-.34-.397-.425s-.397-.318-.397-.52c0-.421-1.3-.52-1.363-.105-.12.8-.012.94.834 1.09l1.124.199c.11.019.199-.088.199-.239m3.88-.938c.336-.874-4.018-2.017-4.53-1.189-.225.365.3.601 1.332.601.503 0 1.178.222 1.504.494.729.608 1.481.65 1.695.094m-5.325-.923c.096-.155.12-.336.054-.403-.185-.185-.99.18-.99.449 0 .331.725.296.936-.046"/>
</svg>
