<svg xmlns="http://www.w3.org/2000/svg" viewBox="1.79297 85.5652 189.2 134.7">
	<path d="M 1.7929734,152.90163 V 85.565173 H 96.381516 190.97006 v 67.336457 67.33646 H 96.381516 1.7929734 Z m 90.6737526,57.34844 c 1.86507,-2.70208 4.38703,-6.93796 6.57618,-11.04536 l 1.550664,-2.90941 0.19183,0.92504 c 0.10551,0.50877 0.27449,1.96684 0.3755,3.24014 0.28354,3.5741 1.77849,0.79464 4.87095,-9.05623 1.31774,-4.19756 1.4941,-4.15417 2.41454,0.59405 0.62653,3.23207 0.58996,3.18499 1.27367,1.63934 2.06006,-4.65711 2.47232,-8.88421 1.69947,-17.42566 -0.12835,-1.41844 -0.0919,-1.7798 0.16353,-1.62193 0.33243,0.20545 2.7788,3.82985 2.99655,4.43954 0.67104,1.87877 0.27308,-4.58723 -0.48913,-7.94741 -0.22162,-0.97701 -0.88351,-3.46769 -1.47087,-5.53484 -1.35015,-4.75176 -1.28002,-5.08521 0.56295,-2.67682 1.92238,2.51215 2.22741,2.57121 1.55557,0.30121 -1.18215,-3.99424 -0.91515,-10.207 0.28381,-6.6041 0.75816,2.27826 0.95729,2.21592 1.15608,-0.3619 0.49784,-6.45595 3.81225,-10.45299 12.92007,-15.58106 2.44643,-1.37744 3.92611,-2.37077 4.01012,-2.69203 0.12777,-0.48857 0.46811,-0.50947 8.42614,-0.51739 5.57249,-0.006 9.33456,-0.13442 11.468,-0.39285 10.29133,-1.24661 9.69139,-1.30091 12.29874,1.11309 l 1.92112,1.77867 -0.19732,-1.70835 C 165.4447,124.52535 151.44376,115.26203 127.45269,112.024 l -2.26632,-0.30589 -3.09067,-2.89001 c -2.97811,-2.78476 -3.89494,-3.42242 -3.4895,-2.42699 1.40797,3.4569 1.51486,3.44879 -3.86565,0.29352 -8.49961,-4.98439 -14.18958,-7.487537 -12.05798,-5.30459 1.26529,1.29578 1.23812,1.35761 -0.41407,0.94235 -1.86799,-0.46949 -11.148534,-1.64321 -14.537664,-1.8386 l -2.726403,-0.15717 1.4552,0.87765 1.455213,0.87765 -3.042713,0.20177 c -1.67348,0.11097 -5.0283,0.38104 -7.45514,0.60016 -2.42685,0.21912 -4.606765,0.39841 -4.844265,0.39841 -0.92859,0 -0.07058,0.47074 1.443748,0.7921 2.114147,0.44866 2.050257,0.54662 -1.116734,1.71233 -5.259759,1.93602 -12.236625,5.93542 -18.457023,10.58025 -3.907583,2.91784 -3.978022,3.05851 -1.199291,2.39506 0.867074,-0.20702 1.62798,-0.32492 1.690902,-0.262 0.06292,0.0629 -2.521736,2.80375 -5.743685,6.09072 -5.670988,5.78543 -6.255843,6.47279 -5.507557,6.47279 0.439976,0 3.888895,-1.16596 4.643469,-1.5698 0.691942,-0.37032 0.722961,-0.0322 0.07399,0.80651 -2.218869,2.8675 -8.103151,11.83923 -7.898931,12.04345 0.06363,0.0636 0.849393,-0.32139 1.746152,-0.85558 2.068467,-1.23218 2.110378,-1.1553 0.593615,1.08887 -0.686949,1.0164 -2.7431,4.05066 -4.569224,6.74279 -3.845411,5.66904 -3.77507,5.55625 -3.465213,5.55625 0.130277,0 1.463199,-0.77754 2.96205,-1.72787 1.498851,-0.95032 2.773867,-1.67918 2.83337,-1.61968 0.885144,0.88514 -4.263547,8.96856 -9.687264,15.20895 -1.053611,1.21226 -1.871331,2.24843 -1.817158,2.3026 0.144002,0.144 10.615242,-2.88878 12.755506,-3.69437 2.135915,-0.80396 2.490819,1.35485 1.036601,6.30542 -0.182991,0.62296 0.861428,0.52067 5.407406,-0.5296 3.681706,-0.8506 3.49484,-0.93491 4.546624,2.05122 1.456045,4.13387 2.95382,7.89717 3.142396,7.89557 0.09811,-8.3e-4 1.466938,-1.37005 3.041851,-3.04271 3.60434,-3.82804 2.912638,-4.18636 5.876572,3.04422 1.185939,2.89313 2.99398,6.92503 3.197256,7.12983 0.06462,0.0651 1.102568,-0.8616 2.306557,-2.05933 l 2.189072,-2.1777 1.200628,1.92704 c 0.660344,1.05987 2.013344,3.29626 3.006664,4.96975 3.96319,6.67696 3.43366,6.38917 4.86845,2.64583 1.35664,-3.53945 1.16167,-3.53797 3.17294,-0.0241 2.944319,5.14401 4.690129,10.41128 5.335439,16.09753 0.40499,3.5686 0.29931,3.53801 2.28482,0.66146 z m -1.11494,-2.11667 c -0.62808,-3.92141 -2.21129,-9.01085 -3.760513,-12.08866 -0.89272,-1.77356 -0.92294,-1.93117 -0.88768,-4.63021 l 0.0365,-2.79415 -2.91836,-2.90591 -2.91836,-2.9059 v -7.15932 -7.15932 l -1.17779,-1.15591 c -0.64778,-0.63576 -1.21333,-1.40469 -1.25677,-1.70874 -0.0823,-0.57634 -1.1414,-0.92545 -1.54435,-0.50907 -0.44941,0.46439 0.0435,1.67604 0.68185,1.67604 0.38867,0 0.95348,0.40128 1.55666,1.10596 l 0.94665,1.10596 v 7.07988 7.07989 l 2.91042,2.9429 2.91042,2.9429 v 1.61535 c 0,0.88845 -0.0682,1.54717 -0.15152,1.46384 -0.0833,-0.0833 -0.73264,-1.08545 -1.4429,-2.22691 -0.71026,-1.14147 -1.38621,-2.15642 -1.50213,-2.25545 -0.11591,-0.099 -1.13348,-1.05938 -2.26126,-2.13411 l -2.05053,-1.95405 v -6.40229 c 0,-4.39116 0.0962,-6.55638 0.30634,-6.89282 0.40618,-0.65039 0.1093,-1.35438 -0.57114,-1.35438 -0.60603,0 -1.15351,1.03078 -0.76589,1.44198 0.13032,0.13825 0.23694,3.23666 0.23694,6.88537 v 6.63402 l 2.11667,2.10426 c 2.44269,2.42836 2.38218,2.17267 1.26798,5.35781 -1.03085,2.94686 -0.90301,2.92513 -2.33504,0.39687 -1.3274,-2.34354 -5.049188,-8.40307 -5.647155,-9.19427 -0.386176,-0.51096 -0.472313,-0.4575 -2.504385,1.55444 -1.986663,1.96698 -2.121024,2.05264 -2.400514,1.53041 -0.74551,-1.393 -3.723476,-9.09375 -3.596257,-9.29959 0.07851,-0.12704 0.02489,-0.30383 -0.119169,-0.39286 -0.144058,-0.089 -0.587494,-0.87117 -0.985414,-1.73808 -0.906122,-1.97407 -0.522083,-2.12098 -4.153767,1.58893 -1.70411,1.74082 -3.147655,3.02074 -3.207877,2.84427 -0.06022,-0.17647 -0.709623,-1.9583 -1.443114,-3.95962 -0.73349,-2.00133 -1.333619,-3.70179 -1.333619,-3.77881 0,-0.077 -0.167998,-0.54212 -0.373328,-1.03354 l -0.373328,-0.8935 -4.150491,0.86614 -4.150491,0.86615 0.136813,-0.69175 c 0.359224,-1.8163 1.0229,-6.94808 0.91281,-7.05817 -0.06838,-0.0684 -2.612818,0.69116 -5.654304,1.68788 -3.041485,0.99672 -5.876628,1.89868 -6.300318,2.00437 -0.915374,0.22834 -1.123891,0.57497 2.433199,-4.0449 4.66842,-6.06325 6.142355,-8.86875 6.142355,-11.69141 0,-2.13428 0.02829,-2.12123 -1.852173,-0.85485 l -1.448235,0.9753 0.49666,-0.77686 c 0.273163,-0.42728 1.652827,-2.44374 3.065919,-4.48103 6.30833,-9.09488 6.470523,-9.42328 4.004991,-8.10917 -0.85971,0.45822 -1.639929,0.83313 -1.73382,0.83313 -0.412469,0 1.68042,-3.07658 5.984562,-8.7974 2.39919,-3.18886 2.449246,-3.48097 0.445416,-2.59927 -0.636962,0.28026 -1.812016,0.76614 -2.611231,1.07972 l -1.453118,0.57014 1.849993,-1.92197 c 1.017497,-1.05709 3.695463,-3.71254 5.951035,-5.90101 4.590756,-4.45416 4.835335,-4.80343 3.166198,-4.52143 -1.5883,0.26834 -1.2605,-0.0712 2.3416,-2.42528 4.244667,-2.77404 6.420429,-4.03303 8.967874,-5.18917 2.545636,-1.15532 2.457661,-1.13957 2.457661,-0.44007 0,0.4563 0.140822,0.53232 0.857729,0.46302 0.984265,-0.0951 1.332293,-0.90123 0.615422,-1.42542 -0.370668,-0.27104 -0.165582,-0.39961 1.360291,-0.8528 4.40958,-1.30964 5.39618,-1.41536 12.63011,-1.35348 6.111093,0.0523 6.897983,0.0111 7.140913,-0.37407 0.45758,-0.72541 -0.41529,-1.38933 -1.35426,-1.03008 -0.99479,0.38061 -13.540293,0.7257 -13.180413,0.36255 0.14552,-0.14684 2.8508,-0.41861 6.01173,-0.60392 5.511103,-0.3231 5.729403,-0.35654 5.315333,-0.81408 -0.63678,-0.70364 -0.47395,-0.72542 2.56356,-0.34285 7.903904,0.99549 8.248634,1.06942 7.408344,1.58874 -0.51518,0.3184 -0.24895,0.64147 1.07776,1.30784 0.7383,0.37082 3.20261,1.87543 5.47626,3.34357 4.37051,2.82213 4.44584,2.84665 6.34724,2.06665 0.83042,-0.34066 3.23832,0.49016 3.23832,1.11734 0,0.35336 1.30914,1.01683 1.70593,0.86456 0.99906,-0.38337 0.36917,-1.07448 -2.15372,-2.36306 -3.17429,-1.62129 -5.78487,-3.17685 -6.4534,-3.84538 -0.63062,-0.63062 -0.94664,-0.6399 -1.26915,-0.0373 -0.33492,0.6258 0.10196,1.38223 0.79831,1.38223 0.29655,0 1.31761,0.43533 2.26903,0.96739 l 1.72985,0.96739 -0.71409,0.37415 c -0.79918,0.41874 -1.05822,0.28824 -7.05376,-3.55332 -4.87285,-3.12222 -5.02048,-3.3615 -1.43246,-2.32173 2.40299,0.69636 2.83649,0.69525 2.25471,-0.006 -0.86534,-1.04268 8.35891,3.89901 12.29065,6.58444 1.2509,0.85438 2.15889,0.83818 2.06612,-0.0369 -0.0935,-0.88146 0.25843,-0.73961 1.91022,0.77003 l 1.49297,1.36449 4.41533,0.73662 c 10.26384,1.71232 9.95795,1.55015 7.59087,4.02436 -0.94618,0.98901 -1.72033,1.94816 -1.72033,2.13145 0,0.18328 -0.35718,0.59733 -0.79375,0.92009 -0.76964,0.56902 -1.03909,1.10017 -0.55812,1.10017 0.1296,0 1.58751,-1.30969 3.2398,-2.91042 3.49036,-3.38143 3.17185,-3.29592 7.23454,-1.94218 11.31848,3.77148 21.30462,12.60939 21.30462,18.85497 0,0.14341 -0.98227,-0.44621 -2.18282,-1.31025 -2.9673,-2.13559 -5.06047,-3.18709 -8.72272,-4.38183 -2.95591,-0.96432 -3.08006,-1.03382 -2.66531,-1.49211 0.50974,-0.56326 0.24343,-0.95425 -0.77587,-1.13908 -0.37116,-0.0673 -2.01115,-0.7178 -3.64442,-1.44553 -3.14229,-1.40011 -3.89196,-1.56792 -4.13818,-0.92628 -0.25542,0.66561 -0.85387,0.45135 -2.16515,-0.7752 -0.88255,-0.82552 -1.64194,-1.26708 -2.56835,-1.49339 -0.72342,-0.17673 -1.46354,-0.43729 -1.64471,-0.57902 -0.22318,-0.17459 -0.54886,-0.1139 -1.0099,0.18818 -0.8955,0.58676 -0.44535,1.25688 0.69156,1.0295 1.42303,-0.28461 2.59703,0.14802 4.10329,1.5121 1.53965,1.39431 1.91256,1.51855 2.83761,0.94534 0.63119,-0.39111 2.3058,-0.1219 2.3058,0.37068 0,0.14136 -0.0893,0.24292 -0.19844,0.22569 -1.06063,-0.16747 -1.18636,0.69754 -0.13229,0.91015 0.49028,0.0989 0.8335,0.009 1.05227,-0.27601 0.33115,-0.43122 3.51955,0.61966 3.93894,1.29825 0.32638,0.5281 -0.23742,0.47618 -4.82677,-0.44453 -7.58783,-1.52226 -9.04617,-1.59546 -18.84789,-0.94609 -14.01906,0.92877 -16.28108,1.27785 -16.60346,2.5623 -0.3695,1.4722 -0.67324,1.45022 14.19068,1.02694 7.49196,-0.21335 14.1288,-0.38962 14.74853,-0.39171 1.00135,-0.003 1.30496,0.16001 2.72753,1.46781 0.88041,0.80939 1.77863,1.43447 1.99605,1.38906 0.64645,-0.135 0.35915,-0.52821 -1.60689,-2.19922 l -1.8678,-1.5875 -13.07434,0.35147 c -12.40481,0.33348 -15.20444,0.29318 -14.66964,-0.21112 0.24396,-0.23006 3.41279,-0.48592 15.38151,-1.24193 9.71268,-0.61351 17.98027,0.42738 26.92013,3.38924 2.74826,0.91052 6.81448,2.97065 6.05399,3.06721 -0.27376,0.0348 -2.81945,0.3732 -5.65711,0.75207 -4.62038,0.6169 -6.45848,0.71141 -17.59479,0.90459 -6.83948,0.11865 -14.17459,0.30349 -16.30024,0.41076 l -3.86482,0.19503 -2.72151,-2.55188 -2.72151,-2.55189 h -2.74023 c -1.50713,0 -2.74023,-0.0462 -2.74023,-0.10263 0,-0.83988 4.00415,-4.12008 5.22552,-4.28074 2.00323,-0.26351 1.90813,-0.91094 -0.13229,-0.90056 l -1.52136,0.008 -6.21275,6.20997 -6.212754,6.20997 h -5.70673 c -3.74867,0 -5.805193,-0.0985 -5.993713,-0.28698 -0.52859,-0.52859 -1.53133,-0.17276 -1.61816,0.57421 -0.12555,1.08008 0.60329,1.52125 1.58365,0.9586 0.67626,-0.38811 1.59622,-0.45208 6.501903,-0.45208 h 5.71419 l 3.629044,-3.57187 3.62903,-3.57188 h 3.05232 3.05231 l 2.6555,2.51354 2.65549,2.51354 h 6.87233 c 7.51256,0 7.78531,0.0584 5.7653,1.2353 -0.75641,0.44068 -2.54247,1.48335 -3.96901,2.31705 -4.40981,2.57714 -7.38037,5.60452 -9.16404,9.33934 -0.97375,2.03892 -1.17103,2.14845 -1.4517,0.80601 l -0.18093,-0.86532 -0.40775,0.75985 c -0.92428,1.7224 -1.48425,3.85119 -1.64448,6.25161 l -0.16779,2.51354 -1.04866,-1.38906 c -1.8714,-2.47885 -1.97902,0.35053 -0.24692,6.4916 2.41714,8.56987 2.472,9.67798 0.37646,7.60431 -2.02168,-2.00059 -2.00897,-2.02817 -1.4977,3.24865 0.54415,5.61603 0.54879,9.29528 0.015,11.90305 -0.5428,2.65192 -0.72386,2.77747 -1.25425,0.86976 -0.24182,-0.86978 -0.752,-2.27212 -1.13372,-3.11632 l -0.69405,-1.53491 -0.48291,1.45521 c -0.2656,0.80037 -1.20074,3.71908 -2.07809,6.48604 -2.07581,6.54666 -2.17914,6.68422 -2.76839,3.68525 -0.61486,-3.12932 -0.59624,-3.12352 -1.952324,-0.60745 -6.16509,11.43873 -8.15886,14.52102 -8.40378,12.99189 z m 2.24135,-3.75115 c 0.15012,-0.2805 0.2044,-0.68862 0.12062,-0.90694 -0.088,-0.2294 0.56776,-1.54965 1.55374,-3.12802 2.40216,-3.84541 3.91134,-6.38267 5.178854,-8.70677 l 1.09454,-2.00695 v -5.93552 -5.93552 l -2.645834,-2.6359 -2.64583,-2.63591 v -9.10181 -9.10182 l 5.992574,-5.91364 c 3.29592,-3.2525 6.12365,-6.12985 6.28386,-6.39411 0.1602,-0.26426 0.5294,-0.86089 0.82044,-1.32585 l 0.52917,-0.84539 7.21348,-0.002 c 5.00834,-10e-4 7.36344,0.092 7.70402,0.30467 0.9976,0.62301 2.07454,-0.49332 1.26087,-1.30699 -0.36469,-0.36469 -0.5651,-0.38177 -1.31174,-0.11178 -0.60297,0.21804 -3.17313,0.32269 -8.13854,0.33138 l -7.25726,0.0127 -1.05094,1.50865 c -0.57801,0.82976 -3.76293,4.25526 -7.0776,7.61221 l -6.026674,6.10354 v 9.18647 9.18646 l 2.77813,2.7149 2.778124,2.7149 v 5.63716 5.63717 l -1.148394,2.02251 c -0.63161,1.11238 -1.74473,3.03454 -2.47359,4.27147 -0.72886,1.23692 -1.96825,3.34622 -2.75421,4.68733 -0.78596,1.34111 -1.63128,2.50806 -1.8785,2.59322 -0.24722,0.0852 -0.52495,0.3926 -0.61717,0.68318 -0.3503,1.1037 1.17449,1.80197 1.71786,0.78668 z m -1.99302,-3.34535 c 0.52271,-0.52272 0.52916,-1.01283 0.0189,-1.43631 -0.33273,-0.27614 -0.39688,-1.36199 -0.39688,-6.71786 v -6.38847 l -2.77812,-2.76867 -2.778133,-2.76867 v -2.07264 c 0,-1.13996 0.12856,-2.31285 0.28568,-2.60643 0.50448,-0.94264 -0.46884,-1.75492 -1.19503,-0.99729 -0.38589,0.40259 -0.44893,0.60563 -0.21512,0.69284 0.23475,0.0876 0.33072,0.90264 0.33072,2.80878 v 2.68541 l 2.66975,2.67887 2.669753,2.67887 0.14855,5.86506 c 0.11245,4.43976 0.0649,6.11857 -0.19573,6.90822 -0.51026,1.5461 0.40796,2.46599 1.43566,1.43829 z m 2.96671,-3.68731 c 0.0842,-0.21941 -0.0389,-0.69187 -0.27347,-1.04992 -0.37104,-0.56628 -0.4204,-1.67376 -0.37926,-8.50964 l 0.0473,-7.85864 -4.01546,-3.91884 -4.015453,-3.91885 v -4.71447 c 0,-3.03554 0.1022,-4.81668 0.28698,-5.00146 0.40872,-0.40872 0.19563,-1.43247 -0.3697,-1.7762 -0.79668,-0.4844 -1.66297,0.75048 -1.11411,1.58814 0.32395,0.49441 0.40308,1.56557 0.40308,5.45644 v 4.84126 l 3.968753,3.96214 3.96875,3.96213 v 7.72676 c 0,4.86576 -0.098,7.7873 -0.26459,7.89027 -0.29722,0.1837 -0.35942,1.27217 -0.0882,1.54341 0.33969,0.33968 1.69223,0.17658 1.84538,-0.22253 z m -9.297813,-35.849 c 0.0899,-0.14552 0.21603,-0.26458 0.2802,-0.26458 0.0642,0 0.11667,0.11906 0.11667,0.26458 0,0.14552 -0.12608,0.26458 -0.28019,0.26458 -0.15411,0 -0.20662,-0.11906 -0.11668,-0.26458 z m 3.589273,33.59277 c 0.54169,-0.2899 0.69229,-1.17081 0.24719,-1.4459 -0.14999,-0.0927 -0.26459,-1.40245 -0.26459,-3.02409 v -2.86058 l -2.778123,-2.75467 -2.77813,-2.75468 v -7.54321 -7.54321 l -1.19062,-1.16852 -1.19063,-1.16851 v -2.8062 -2.80621 l 4.41046,-4.21426 c 2.425753,-2.31784 4.658173,-4.33776 4.960933,-4.4887 0.33498,-0.16701 0.55049,-0.53034 0.55049,-0.9281 0,-0.92672 -1.18664,-0.92105 -1.63525,0.008 -0.17571,0.36381 -2.248953,2.56646 -4.607203,4.8948 -4.82115,4.75998 -4.75047,4.62774 -4.59603,8.59896 0.0762,1.95864 0.0929,2.00073 1.29064,3.24579 l 1.21346,1.26142 v 7.47479 7.4748 l 2.65744,2.64087 2.657443,2.64087 -0.0835,2.91042 c -0.0459,1.60073 -0.177073,3.10342 -0.291403,3.33932 -0.38018,0.78445 0.581613,1.46968 1.427463,1.01699 z m 8.0524,-1.31361 c 0.0924,-0.29104 0.0906,-0.77285 -0.004,-1.07068 -0.16628,-0.52389 1.28736,-2.68825 2.17736,-3.24194 0.56688,-0.35268 0.41104,-1.45003 -0.23505,-1.6551 -0.70446,-0.22358 -1.25131,0.41075 -1.09631,1.27168 0.0757,0.42061 -0.28725,1.07273 -1.23838,2.22491 -1.10531,1.33895 -1.3148,1.75222 -1.17352,2.3151 0.21507,0.85689 1.31274,0.966 1.56982,0.15603 z m 7.086054,-2.51354 c -0.1146,-1.57667 -0.0558,-5.57522 0.0943,-6.41335 0.11718,-0.65423 0.0479,-0.89764 -0.2928,-1.02837 -0.69276,-0.26583 -1.32047,0.50272 -0.96028,1.17575 0.36317,0.67858 0.38474,5.2504 0.0258,5.47222 -0.3033,0.18746 -0.35717,1.27443 -0.077,1.55457 0.50299,0.50299 1.26691,0.0226 1.20996,-0.76082 z m -23.675437,-0.71437 c 0.51662,-0.51662 0.36364,-1.26556 -0.31089,-1.52201 -0.34562,-0.13141 -1.40435,-1.34885 -2.35273,-2.70543 -0.94838,-1.35659 -2.63014,-3.70209 -3.737231,-5.21223 -2.828514,-3.85826 -2.821504,-4.32724 0.10956,-7.33014 2.016421,-2.06585 2.116301,-2.22415 1.999151,-3.16864 -0.0743,-0.59945 0.036,-1.30227 0.27803,-1.77024 0.36554,-0.70687 0.36039,-0.82134 -0.0577,-1.28334 -0.85163,-0.94104 -1.38342,-0.0471 -1.2405,2.0852 l 0.11913,1.77745 -2.007147,1.97776 -2.007151,1.97775 v 1.73558 c 0,1.73499 6.19e-4,1.7364 1.799057,4.10767 2.830981,3.73268 5.873861,8.31855 5.873861,8.85239 0,0.73456 0.97455,1.03826 1.53458,0.47823 z m 16.212813,-1.98488 c 0.14949,-0.39318 0.80139,-1.28105 1.44866,-1.97304 l 1.17686,-1.25816 v -2.24468 c 0,-1.23457 0.11907,-2.31826 0.26459,-2.4082 0.775814,-0.47948 -0.34962,-2.1382 -1.22329,-1.80294 -0.49826,0.1912 -0.76792,1.37278 -0.39776,1.74294 0.64642,0.64641 0.36893,4.56547 -0.38685,5.46366 -1.18691,1.41056 -1.26378,1.16393 -1.08137,-3.46939 l 0.16864,-4.28343 -3.54495,-3.58792 c -2.29771,-2.32557 -3.57589,-3.82064 -3.63291,-4.24938 -0.10994,-0.82663 -1.21285,-1.0743 -1.716543,-0.38545 -0.38512,0.52668 -0.0392,1.44378 0.544603,1.44378 0.19394,0 1.90451,1.55189 3.80126,3.44864 l 3.44864,3.44865 0.0887,4.81958 c 0.0488,2.65078 -0.006,4.96842 -0.12202,5.15032 -0.1159,0.1819 -0.13713,0.44979 -0.0472,0.59531 0.30836,0.49896 0.93922,0.26437 1.21093,-0.45029 z m 1.83177,-8.54554 c 0,-0.14552 0.11907,-0.26458 0.26459,-0.26458 0.14552,0 0.26458,0.11906 0.26458,0.26458 0,0.14552 -0.11906,0.26458 -0.26458,0.26458 -0.14552,0 -0.26459,-0.11906 -0.26459,-0.26458 z m -10.05416,-9.525 c 0,-0.14552 0.12609,-0.26458 0.2802,-0.26458 0.15411,0 0.20661,0.11906 0.11667,0.26458 -0.0899,0.14552 -0.21602,0.26458 -0.2802,0.26458 -0.0642,0 -0.11667,-0.11906 -0.11667,-0.26458 z M 109.47839,183.461 c 0,-1.97554 0.0954,-2.91041 0.29698,-2.91041 0.20607,0 0.21383,-0.10125 0.0254,-0.33073 -0.1494,-0.1819 -0.31281,-0.62717 -0.36313,-0.98949 -0.0536,-0.38581 -0.29499,-0.69756 -0.58262,-0.75241 -0.82693,-0.1577 -1.0525,0.34044 -0.57355,1.26662 0.34447,0.66613 0.41835,1.4473 0.35324,3.7351 -0.0743,2.6102 -0.0371,2.89277 0.3807,2.89228 0.41288,-4.8e-4 0.46302,-0.31572 0.46302,-2.91096 z m -17.376614,0.68698 c 0.19965,-0.52026 -0.0876,-1.47834 -0.44747,-1.49264 -0.53205,-0.0211 -2.61721,-2.64132 -2.79397,-3.51085 -0.17961,-0.88357 -1.11751,-1.30584 -1.671013,-0.75234 -0.39999,0.39999 -0.002,1.62718 0.532133,1.64179 0.6382,0.0174 2.70693,2.67609 2.70693,3.47884 0,1.01782 1.33247,1.52362 1.67339,0.6352 z m 14.658804,-0.86395 c 0.056,-0.17009 -0.55978,-0.99229 -1.36833,-1.82709 l -1.47011,-1.51783 v -2.14688 -2.14688 l -2.51354,-2.5031 -2.513544,-2.50309 V 167.578 c 0,-1.84729 0.1138,-3.17496 0.28699,-3.34815 0.58028,-0.58028 0.1723,-1.53864 -0.65503,-1.53864 -0.98225,0 -1.48136,0.7105 -1.01909,1.45071 0.2131,0.34123 0.3288,1.61191 0.3288,3.61114 v 3.08466 l 2.645834,2.68871 2.64583,2.68871 v 2.11582 c 0,2.07073 0.0197,2.13495 0.92605,3.01338 0.51083,0.49511 0.92604,1.16097 0.92604,1.48506 0,0.84695 1.52302,1.23592 1.7801,0.45463 z m -8.659274,-19.66677 c 0,-0.14553 0.11906,-0.26459 0.26458,-0.26459 0.14553,0 0.26459,0.11906 0.26459,0.26459 0,0.14552 -0.11906,0.26458 -0.26459,0.26458 -0.14552,0 -0.26458,-0.11906 -0.26458,-0.26458 z m -27.823562,19.21366 c 0.05198,-0.27379 -0.05092,-0.76954 -0.228674,-1.10167 -0.216819,-0.40513 -0.271597,-1.24268 -0.166445,-2.54491 0.0862,-1.06757 0.16036,-2.59793 0.16479,-3.4008 0.0088,-1.59352 1.822653,-4.22879 2.910683,-4.22879 0.566274,0 0.879528,-0.66038 0.652523,-1.37561 -0.24959,-0.78639 -1.191205,-0.47694 -1.770576,0.58186 -0.278698,0.50933 -1.032364,1.46592 -1.674815,2.12576 l -1.168092,1.19971 v 3.70831 c 0,2.3976 -0.105374,3.81368 -0.298128,4.00644 -0.171362,0.17136 -0.22369,0.59471 -0.123064,0.99564 0.214179,0.85335 1.541214,0.87991 1.701798,0.0341 z m -2.066417,-1.89302 c 0.281715,-0.33945 0.221636,-0.52719 -0.364478,-1.13896 -0.385987,-0.40288 -0.701794,-0.99644 -0.701794,-1.31902 0,-0.36912 -0.245589,-0.69841 -0.662577,-0.8884 -0.927749,-0.42271 -1.037331,-0.16758 -0.408722,0.95161 0.298173,0.53087 0.542132,1.30886 0.542132,1.72887 0,1.03748 0.955932,1.43646 1.595439,0.6659 z m 7.968256,-2.16432 c -0.06,-1.36218 0.0114,-2.19146 0.19844,-2.30707 0.38844,-0.24007 0.37263,-1.28574 -0.0255,-1.68384 -0.96234,-0.96234 -2.15437,0.29161 -1.38844,1.46056 0.3498,0.53386 0.4201,1.07876 0.31989,2.47938 -0.0787,1.0993 -0.0182,1.90535 0.15586,2.07945 0.62698,0.62699 0.83187,0.0652 0.73972,-2.02848 z m -0.83245,-3.25008 c 0,-0.14552 0.11204,-0.26458 0.24897,-0.26458 0.13694,0 0.32256,0.11906 0.41249,0.26458 0.0899,0.14553 -0.0221,0.26459 -0.24897,0.26459 -0.22686,0 -0.41249,-0.11906 -0.41249,-0.26459 z m 31.575357,4.18937 c 0.20222,-0.32269 0.17435,-0.56363 -0.10397,-0.899 -0.26318,-0.3171 -0.35249,-0.93993 -0.29009,-2.02309 0.0889,-1.54393 0.0726,-1.58512 -1.21643,-3.06975 l -1.30657,-1.50482 -0.15726,-7.75042 -0.15725,-7.75043 5.47343,-5.46132 c 8.19688,-8.17878 8.04362,-8.07167 10.08928,-7.05116 0.82169,0.40991 0.8861,0.40396 1.42131,-0.13124 1.00021,-1.00022 0.21936,-1.37104 -2.4148,-1.14677 l -2.19846,0.18718 -6.59894,6.60214 -6.59893,6.60215 v 8.00608 8.00608 l 1.48505,1.66365 c 1.54836,1.73456 1.89896,3.6304 0.89507,4.84001 -0.22387,0.26974 -0.2237,0.50458 6.7e-4,0.92382 0.34962,0.65326 1.25609,0.62997 1.67789,-0.0431 z m 1.76215,-5.82218 c 0,-3.05603 0.0778,-3.83546 0.42073,-4.21437 0.82529,-0.91194 -0.41897,-2.33115 -1.35946,-1.55061 -0.43847,0.36389 -0.51548,1.46458 -0.1196,1.70925 0.15663,0.0968 0.26458,1.72254 0.26458,3.98437 0,3.21991 0.0624,3.82084 0.39688,3.82084 0.33411,0 0.39687,-0.593 0.39687,-3.74948 z m -50.852918,2.90281 c 0.174625,-0.17462 0.3175,-0.51206 0.3175,-0.74986 0,-0.23781 2.91109,-3.39892 6.46909,-7.02469 l 6.469091,-6.59232 0.0132,-7.60677 c 0.0074,-4.27738 0.116616,-7.60677 0.249476,-7.60677 0.400691,0 0.570177,-0.80481 0.282633,-1.34209 -0.157653,-0.29457 -0.552009,-0.50999 -0.933618,-0.50999 -0.890743,0 -1.27101,0.955 -0.723605,1.81727 0.341621,0.53811 0.370535,1.64082 0.204662,7.8052 l -0.193164,7.17857 -6.381904,6.50091 c -3.510047,3.5755 -6.590263,6.57809 -6.844925,6.67243 -0.452264,0.16752 -0.644694,1.24116 -0.286632,1.59923 0.28081,0.28081 1.012269,0.20481 1.358195,-0.14112 z m 12.620624,-30.37416 c -0.08994,-0.14552 -0.03743,-0.26458 0.116677,-0.26458 0.154109,0 0.280198,0.11906 0.280198,0.26458 0,0.14552 -0.0525,0.26458 -0.116676,0.26458 -0.06417,0 -0.190262,-0.11906 -0.280199,-0.26458 z m -3.461223,28.4144 c 0.233556,-0.0896 0.42057,-0.46965 0.423164,-0.8599 0.0036,-0.54372 0.945426,-1.66083 4.233333,-5.0213 l 4.228683,-4.32201 0.0104,-3.08633 0.0104,-3.08632 3.01013,-3.10885 c 1.65558,-1.70987 3.135,-3.10886 3.28761,-3.10886 0.50731,0 0.89713,-1.04979 0.54663,-1.47212 -0.49602,-0.59767 -0.99503,-0.44895 -1.45079,0.43238 -0.23104,0.44679 -1.72238,2.15667 -3.31408,3.79974 l -2.89401,2.98739 v 3.10663 3.10663 l -4.167186,4.29208 c -2.291953,2.36064 -4.435078,4.42944 -4.7625,4.59733 -1.218368,0.62475 -0.443924,2.23553 0.838256,1.74351 z m -8.734699,-2.15451 c 0.204483,-0.25466 2.585733,-2.72919 5.291667,-5.49896 l 4.91988,-5.03594 0.0072,-8.85469 0.0072,-8.85468 0.922444,-0.99218 c 0.507344,-0.54571 1.075622,-0.99219 1.262841,-0.99219 0.967242,0 1.302998,-1.39356 0.446231,-1.85208 -0.713394,-0.3818 -1.587097,0.0962 -1.588764,0.8692 -6.96e-4,0.3223 -0.417414,1.03911 -0.926042,1.59292 l -0.924778,1.00691 v 8.78542 8.78543 l -4.696354,4.64734 c -2.582994,2.55603 -5.023776,4.78466 -5.423958,4.95251 -0.767249,0.3218 -0.953663,1.04296 -0.410104,1.58651 0.431594,0.4316 0.674758,0.39979 1.112619,-0.14552 z m 12.063631,-31.30259 c 0,-0.15411 0.119062,-0.20661 0.264583,-0.11668 0.145521,0.0899 0.264583,0.21603 0.264583,0.2802 0,0.0642 -0.119062,0.11668 -0.264583,0.11668 -0.145521,0 -0.264583,-0.12609 -0.264583,-0.2802 z m 24.001491,30.78722 c 0.0875,-0.22804 0.0306,-0.62044 -0.12653,-0.87199 -0.18433,-0.29517 -0.31643,-3.51913 -0.37248,-9.09065 l -0.0869,-8.63327 5.54234,-5.54713 c 3.048284,-3.05091 5.773764,-5.58208 6.056614,-5.62482 0.89315,-0.13495 1.08532,-1.23711 0.26976,-1.54718 -0.72022,-0.27383 -1.41767,0.0431 -1.41767,0.64429 0,0.16535 -2.55688,2.85544 -5.681954,5.97797 l -5.68194,5.67734 -0.0813,9.00473 c -0.0447,4.9526 -0.17598,9.25487 -0.29173,9.5606 -0.30156,0.79651 0.46213,1.53396 1.18687,1.14609 0.28916,-0.15475 0.59734,-0.46794 0.68484,-0.69598 z m -38.332736,-0.0443 c 0.0487,-0.3442 -0.0406,-0.75497 -0.198437,-0.91281 -0.187541,-0.18754 -0.286985,-2.1614 -0.286985,-5.69638 v -5.4094 l 2.678907,-2.72232 2.678906,-2.72232 v -1.73229 c 0,-1.14705 0.122909,-1.8343 0.363802,-2.03422 0.9904,-0.82196 -0.08923,-2.43179 -1.223698,-1.82464 -0.554805,0.29692 -0.729502,1.43246 -0.264583,1.71979 0.14552,0.0899 0.261861,0.90064 0.258535,1.80156 l -0.006,1.63803 -2.639785,2.71772 -2.639786,2.71772 v 5.53806 c 0,3.55748 -0.107062,5.77303 -0.299365,6.19509 -0.432715,0.94971 -0.12125,1.53757 0.760882,1.43611 0.534541,-0.0615 0.752738,-0.25088 0.817655,-0.7097 z m 8.99736,0.26065 c 0.195062,-0.12364 0.492718,-0.47306 0.661459,-0.77649 0.16874,-0.30344 1.94391,-2.26849 3.944821,-4.36677 l 3.638021,-3.81507 v -2.59784 -2.59785 l 2.447392,-2.52998 c 1.34607,-1.39149 2.70984,-2.62739 3.0306,-2.74644 0.6144,-0.22802 1.02011,-1.04965 0.74118,-1.50097 -0.3293,-0.53282 -1.16929,-0.24769 -1.7468,0.59294 -0.32492,0.47295 -1.69418,1.99588 -3.04282,3.3843 l -2.452072,2.5244 0.149436,2.50475 0.149435,2.50475 -3.759624,3.89373 c -2.067793,2.14156 -3.839738,3.8827 -3.937655,3.86921 -0.850518,-0.11719 -1.379104,0.84315 -0.828951,1.50604 0.366013,0.44102 0.513459,0.4632 1.005578,0.15129 z m 41.76416,-0.19904 c 0.0912,-0.23755 0.0279,-0.65266 -0.1406,-0.92245 -0.40985,-0.65628 -0.42733,-10.58962 -0.0194,-10.99761 0.40872,-0.40871 0.19563,-1.43246 -0.36971,-1.7762 -0.86191,-0.52406 -1.61596,0.71029 -1.07407,1.7582 0.35194,0.68057 0.41006,1.72297 0.35646,6.39313 -0.0709,6.1807 0.32606,7.94558 1.24727,5.54493 z m 4.97079,-1.14549 c 0.26013,-0.42089 -1.6798,-5.98293 -2.2744,-6.52104 -0.56243,-0.50899 -0.62231,-7.54441 -0.0861,-10.11241 0.17619,-0.84374 0.153,-0.87702 -0.55312,-0.79375 l -0.73702,0.0869 0.0604,5.42396 c 0.0548,4.921 0.10712,5.47391 0.56457,5.96264 0.51732,0.5527 1.40935,3.03323 1.73036,4.81171 0.25388,1.4066 0.82214,1.90759 1.29531,1.14198 z m -10.23314,-1.12133 c 0.30904,-0.30904 0.43775,-1.32614 0.19814,-1.56575 -0.0657,-0.0657 -0.16673,-2.87463 -0.22462,-6.24217 l -0.10525,-6.12281 5.71472,-5.68273 c 3.14309,-3.1255 6.06286,-5.99492 6.48837,-6.3765 0.59946,-0.53758 0.70254,-0.76489 0.45781,-1.00962 -0.49028,-0.49027 -0.96634,-0.0747 -7.51532,6.55965 l -6.01927,6.09779 v 6.38816 c 0,3.97337 -0.10001,6.44998 -0.26458,6.55169 -0.598194,0.3697 -0.0789,1.71979 0.66146,1.71979 0.16007,0 0.43391,-0.14288 0.60854,-0.3175 z m -43.321364,-0.22098 c 0.281475,-0.15064 0.513761,-0.41853 0.516192,-0.59531 0.0024,-0.17678 1.609774,-1.98331 3.571875,-4.01451 l 3.567455,-3.69309 v -9.70496 -9.70495 l 10.474095,-10.41446 10.47409,-10.41445 2.616653,0.0293 c 2.39167,0.0268 2.63098,-0.0159 2.78338,-0.49605 0.25722,-0.81042 -1.17857,-1.42142 -1.62869,-0.6931 -0.12417,0.20091 -0.77315,0.23716 -2.02947,0.11337 l -1.846933,-0.18199 -4.41211,4.38455 -4.4121,4.38455 h -7.316761 c -4.592435,0 -7.377643,-0.0985 -7.480279,-0.26459 -0.58075,-0.93967 -1.983587,0.33564 -1.455208,1.32292 0.296922,0.5548 1.432456,0.7295 1.719791,0.26458 0.10201,-0.16505 2.669895,-0.26458 6.826431,-0.26458 h 6.662906 l -5.884771,5.88914 -5.884774,5.88913 -0.0072,9.65514 -0.0072,9.65513 -3.325765,3.50573 c -1.829171,1.92815 -3.47437,3.50573 -3.655997,3.50573 -0.679837,0 -1.271215,0.97126 -0.953192,1.56549 0.339018,0.63346 0.395213,0.64779 1.087507,0.27728 z m 4.083647,-40.47195 c 0.08994,-0.14552 0.216026,-0.26458 0.280198,-0.26458 0.06417,0 0.116677,0.11906 0.116677,0.26458 0,0.14552 -0.126089,0.26459 -0.280198,0.26459 -0.154109,0 -0.206614,-0.11907 -0.116677,-0.26459 z m 29.507543,40.07654 c 0.25924,-0.31236 0.26663,-0.55669 0.0324,-1.07078 -0.2054,-0.4508 -0.30348,-3.08417 -0.30348,-8.14777 v -7.48169 l 1.98437,-1.89335 c 1.68913,-1.61164 2.42637,-2.69753 1.83144,-2.69753 -0.0841,0 -1.21347,0.98226 -2.50966,2.18281 l -2.35672,2.18281 -0.004,7.72345 c -0.002,4.85929 -0.102,7.78409 -0.26847,7.88697 -0.29723,0.1837 -0.35943,1.27217 -0.0882,1.5434 0.32128,0.32129 1.34092,0.18289 1.68219,-0.22832 z m -43.955105,-0.33715 c 0.15609,-0.29165 0.161286,-0.62608 0.01336,-0.85989 -0.468092,-0.73987 -0.270968,-1.54828 0.477431,-1.95794 2.111928,-1.15604 2.035989,-0.9069 2.182812,-7.16118 l 0.132292,-5.63529 0.979073,-0.95004 c 0.53849,-0.52253 1.163568,-0.95005 1.389062,-0.95005 0.28104,0 0.40999,-0.25492 0.40999,-0.81051 0,-1.06125 -1.69623,-1.11182 -1.749679,-0.0522 -0.01644,0.32589 -0.522454,1.1269 -1.124479,1.78002 l -1.094592,1.1875 v 5.37518 5.37519 l -1.317666,0.78229 c -1.129393,0.67051 -1.318417,0.90052 -1.322917,1.60978 -0.0029,0.45513 -0.183844,0.97572 -0.402125,1.15688 -0.479128,0.39764 -0.506928,0.84245 -0.07937,1.27 0.466214,0.46621 1.214242,0.38689 1.506812,-0.15978 z m 3.590044,-1.44095 c 0.198149,-0.47294 0.668324,-1.14854 1.044832,-1.50133 0.663046,-0.62127 0.684561,-0.7417 0.684561,-3.83172 v -3.1903 l 2.579688,-2.59054 2.579687,-2.59055 -0.07865,-2.47241 -0.07865,-2.47242 1.33542,-1.46116 1.335419,-1.46116 v -1.85089 c 0,-1.09717 0.155621,-2.15085 0.382154,-2.58749 0.518099,-0.99864 0.116868,-1.76804 -0.86297,-1.65485 -0.637625,0.0737 -0.701628,0.17618 -0.629358,1.00805 0.04425,0.50932 0.140492,1.81901 0.213876,2.91042 l 0.133424,1.98437 -1.338355,1.31297 -1.338354,1.31297 v 2.52762 2.52762 l -2.651286,2.6417 -2.651287,2.6417 0.03549,3.10111 c 0.03779,3.30199 -0.394323,4.47835 -1.742296,4.74317 -0.733697,0.14414 -1.09918,0.89122 -0.681944,1.39396 0.579251,0.69796 1.331892,0.50601 1.728596,-0.44084 z m 37.381791,-3.92438 c 0.0382,-2.514 0.18886,-4.58069 0.35774,-4.90609 0.65758,-1.26703 -0.96235,-2.29721 -1.717643,-1.09232 -0.21482,0.34269 -0.20146,0.60337 0.0517,1.00876 0.224293,0.35915 0.396723,2.08663 0.502693,5.03618 0.21635,6.02215 0.71382,5.99342 0.8055,-0.0465 z m -30.686998,0.39775 c 0.03884,-0.86163 0.21193,-1.84224 0.384657,-2.17914 0.400804,-0.78175 -0.0084,-1.50413 -0.85214,-1.50413 -0.835581,0 -1.287128,0.76351 -0.857966,1.45071 0.18084,0.28957 0.328799,1.22264 0.328799,2.07348 0,2.5298 0.883444,2.67081 0.99665,0.15908 z m -0.732066,-2.75722 c 0,-0.14553 0.119062,-0.26459 0.264583,-0.26459 0.145521,0 0.264583,0.11906 0.264583,0.26459 0,0.14552 -0.119062,0.26458 -0.264583,0.26458 -0.145521,0 -0.264583,-0.11906 -0.264583,-0.26458 z m -10.054167,3.96875 c 0,-0.14553 -0.0525,-0.26459 -0.116677,-0.26459 -0.06417,0 -0.190261,0.11906 -0.280198,0.26459 -0.08994,0.14552 -0.03743,0.26458 0.116677,0.26458 0.154109,0 0.280198,-0.11906 0.280198,-0.26458 z m -9.685599,-0.94769 c 0.08833,-0.23018 0.160599,-0.59155 0.160599,-0.80305 0,-0.2115 0.751806,-1.42215 1.67068,-2.69034 0.918873,-1.26819 2.228561,-3.10104 2.910416,-4.073 l 1.239738,-1.76721 v -3.06503 c 0,-1.9836 0.11601,-3.25079 0.328799,-3.59152 0.4104,-0.65716 0.0089,-1.41208 -0.816282,-1.53492 -0.836664,-0.12454 -1.350838,1.08831 -0.745122,1.75762 0.350395,0.38718 0.438855,1.04776 0.438855,3.27719 v 2.79226 l -2.918022,4.10335 c -1.621898,2.28073 -3.149688,4.16393 -3.439583,4.23974 -0.510882,0.1336 -0.741517,1.2007 -0.345173,1.59704 0.336826,0.33683 1.355394,0.17405 1.515095,-0.24213 z m 5.187683,-16.51481 c 0,-0.14553 0.119062,-0.26459 0.264583,-0.26459 0.145521,0 0.264583,0.11906 0.264583,0.26459 0,0.14552 -0.119062,0.26458 -0.264583,0.26458 -0.145521,0 -0.264583,-0.11906 -0.264583,-0.26458 z m 5.291666,13.13417 c 0,-1.97493 0.111987,-3.35074 0.286984,-3.52574 0.539084,-0.53909 0.171719,-1.5315 -0.599917,-1.62065 -1.02645,-0.11858 -1.47854,0.78963 -0.86169,1.73106 0.382096,0.58315 0.423327,1.08184 0.271594,3.28491 -0.117777,1.71003 -0.07994,2.78227 0.11076,3.1386 0.564636,1.05503 0.792269,0.19073 0.792269,-3.00818 z m -0.661458,-4.13834 c -0.08994,-0.14552 0.02913,-0.26458 0.264583,-0.26458 0.235458,0 0.35452,0.11906 0.264584,0.26458 -0.08994,0.14552 -0.209,0.26458 -0.264584,0.26458 -0.05558,0 -0.174646,-0.11906 -0.264583,-0.26458 z m 35.690446,7.2544 c 0.0883,-0.23018 0.16362,-1.21245 0.16731,-2.18281 l 0.007,-1.7643 2.12095,-2.18281 c 1.16652,-1.20055 2.22656,-2.18281 2.355643,-2.18281 0.44076,0 1.04405,-0.80828 0.89439,-1.19829 -0.17201,-0.44827 -1.415663,-0.53509 -1.415663,-0.0988 0,0.15971 -1.13109,1.45779 -2.51354,2.88462 l -2.51354,2.59423 v 2.09837 c 0,1.1541 0.0794,2.17774 0.17639,2.27476 0.28974,0.28973 0.55089,0.20208 0.72135,-0.24213 z m -43.363363,-0.0486 c 0.145521,-0.10691 0.558181,-0.6111 0.917023,-1.12042 4.874612,-6.9188 8.994013,-12.5648 11.727417,-16.07344 l 1.906639,-2.4474 h 1.204356 c 0.662396,0 1.338514,0.13416 1.502485,0.29813 0.380852,0.38085 1.554002,0.0946 1.754592,-0.42814 0.408232,-1.06383 -1.03356,-1.88716 -1.912236,-1.09197 -0.304525,0.27559 -0.949466,0.42823 -1.809365,0.42823 H 53.71542 l -1.493561,1.98438 c -1.461068,1.9412 -2.010137,2.3771 -2.010137,1.5958 0,-0.23669 0.155122,-0.32904 0.396875,-0.23628 0.276527,0.10612 0.396875,-0.0193 0.396875,-0.41348 0,-0.70156 -0.575526,-0.94916 -1.302242,-0.56023 -0.704734,0.37716 -0.702678,1.17098 0.0047,1.83004 l 0.554582,0.51667 -2.093663,2.73478 c -1.151514,1.50413 -2.793697,3.74681 -3.649296,4.98374 -2.382255,3.44399 -4.64916,6.43559 -5.237212,6.91146 -0.766204,0.62003 -0.306881,1.66499 0.478298,1.08813 z m 21.246042,-0.37959 c 0.385126,-0.38513 0.41864,-1.44085 0.05292,-1.66688 -0.365507,-0.22589 -0.333502,-2.93953 0.04176,-3.54041 0.436641,-0.69918 0.09076,-1.40997 -0.635886,-1.30679 -0.574838,0.0816 -0.593086,0.16757 -0.502595,2.36704 0.06077,1.47709 -0.0092,2.34608 -0.198437,2.46301 -0.655424,0.40507 -0.149971,2.00153 0.633703,2.00153 0.160073,0 0.433917,-0.14288 0.608542,-0.3175 z m 17.628811,-0.0983 c 0.51817,-0.51817 0.52183,-0.76328 0.0189,-1.26622 -0.25447,-0.25446 -0.39561,-0.90207 -0.39335,-1.80483 l 0.004,-1.40796 5.61886,-5.68855 5.618863,-5.68854 3.49907,-0.0491 3.49907,-0.0491 5.232184,-5.17166 5.23218,-5.17166 2.43178,-0.005 c 1.34124,-0.003 2.50512,0.11391 2.59531,0.25984 0.23932,0.38724 1.34203,0.32288 1.69196,-0.0988 0.64123,-0.77264 -0.36513,-1.72186 -1.29686,-1.22321 -0.27094,0.145 -1.71702,0.26364 -3.21353,0.26364 h -2.72093 l -5.18622,5.16268 -5.186234,5.16268 -9.771183,-0.0694 -9.77118,-0.0694 -0.0737,-3.48858 -0.0737,-3.48859 2.51837,-2.53068 2.51837,-2.53069 h 6.996963 c 4.12248,0 7.28901,0.11104 7.70783,0.27027 0.82402,0.3133 1.44025,-0.0405 1.44025,-0.82679 0,-0.58939 -1.21414,-0.981 -1.65978,-0.53536 -0.20668,0.20668 -2.53271,0.29813 -7.58289,0.29813 h -7.284753 l -2.7165,2.70725 -2.71649,2.70726 v 3.90055 3.90054 l 0.84802,0.43853 c 0.68017,0.35172 1.27673,0.40558 3.0138,0.27205 1.19117,-0.0916 3.61739,-0.0884 5.3916,0.007 l 3.225843,0.17346 -5.285863,5.31597 -5.28585,5.31597 -0.12575,2.42876 c -0.14752,2.84946 0.21633,3.60511 1.24201,2.57942 z m -32.917429,-1.65117 c 0.657595,-0.53248 0.561554,-1.465 -0.180198,-1.74963 -0.841056,-0.32275 -1.733335,1.12573 -1.13648,1.8449 0.413317,0.49802 0.600753,0.48445 1.316678,-0.0953 z m -0.665757,-0.57888 c -0.08994,-0.14553 -0.03743,-0.26459 0.116677,-0.26459 0.154109,0 0.280198,0.11906 0.280198,0.26459 0,0.14552 -0.05251,0.26458 -0.116677,0.26458 -0.06417,0 -0.190261,-0.11906 -0.280198,-0.26458 z m 54.209299,-0.85899 c 0.21536,-0.34198 0.20554,-0.59896 -0.0378,-0.98859 -0.18084,-0.28957 -0.3288,-1.33828 -0.3288,-2.33047 v -1.80397 l 6.628054,-6.72109 6.62805,-6.72108 4.14308,0.0752 c 2.27869,0.0414 4.35622,0.18927 4.61674,0.32869 1.05293,0.56351 2.06527,-0.84525 1.15203,-1.60317 -0.27662,-0.22957 -0.52375,-0.23838 -0.90864,-0.0324 -0.31334,0.1677 -2.28634,0.28295 -4.84372,0.28295 h -4.31504 l -6.94715,6.94344 -6.947154,6.94344 v 1.83517 c 0,1.00934 -0.14015,2.22274 -0.31144,2.69643 -0.51027,1.41115 0.70387,2.31484 1.47178,1.09545 z m -35.710106,0.16922 c 0.453189,-0.17391 0.58836,-1.4269 0.153931,-1.4269 -0.381551,0 -0.35965,-16.73243 0.0224,-17.11449 0.468286,-0.46828 0.178195,-1.52888 -0.442428,-1.61755 -0.826337,-0.11806 -1.316016,0.60078 -0.952596,1.3984 0.489045,1.07333 0.409385,17.01176 -0.08751,17.50865 -0.76542,0.76542 0.189331,1.68047 1.3062,1.25189 z m 43.81019,-4.64629 c 0,-0.11087 -0.23244,-0.32597 -0.51653,-0.47801 -0.57765,-0.30916 -2.09206,1.79259 -1.7225,2.39055 0.17917,0.2899 2.23903,-1.46959 2.23903,-1.91254 z m 4.41339,0.77199 c 0.11621,-0.1819 0.22695,-0.82791 0.24608,-1.43558 0.0742,-2.35639 3.70422,-7.80659 5.52699,-8.29832 0.964,-0.26006 0.8682,-1.57703 -0.11472,-1.57703 -0.54406,0 -0.81133,0.13047 -0.81133,0.39607 0,0.21785 -0.81613,1.25964 -1.81363,2.31511 -2.08747,2.20878 -2.21859,2.42603 -3.10721,5.14825 -0.36306,1.11219 -0.84822,2.15971 -1.07813,2.32783 -0.3387,0.24767 -0.3597,0.41466 -0.11063,0.88004 0.34089,0.63695 0.93773,0.75212 1.26258,0.24363 z m -58.705898,-0.78052 c 0.174625,-0.17462 0.3175,-0.52481 0.3175,-0.77819 0,-0.25338 0.535781,-1.00416 1.190625,-1.66841 l 1.190625,-1.20772 v -1.96722 c 0,-1.08198 0.119062,-2.04081 0.264583,-2.13075 0.743568,-0.45955 0.281891,-1.75499 -0.595312,-1.67041 -0.916985,0.0884 -1.349033,1.02252 -0.750006,1.62155 1.302957,1.30296 0.03616,4.4713 -2.590897,6.47999 -0.46955,0.35902 -0.582364,0.62758 -0.445191,1.05977 0.200567,0.63193 0.915711,0.76375 1.418073,0.26139 z m 2.169583,-8.67833 c 0,-0.14552 0.119063,-0.26458 0.264583,-0.26458 0.145521,0 0.264584,0.11906 0.264584,0.26458 0,0.14552 -0.119063,0.26458 -0.264584,0.26458 -0.14552,0 -0.264583,-0.11906 -0.264583,-0.26458 z m 18.790051,7.52843 c 0.140867,-0.3705 0.971357,-1.33583 1.845537,-2.14516 1.4838,-1.37374 1.97581,-2.20827 1.30193,-2.20827 -0.15812,0 -1.03143,0.71437 -1.9407,1.5875 -0.98141,0.9424 -1.886001,1.5875 -2.226061,1.5875 -0.452613,0 -0.572841,0.15734 -0.572841,0.74965 0,1.2954 1.145372,1.60386 1.592135,0.42878 z m -28.367967,-2.81879 c 0.174625,-0.17462 0.3175,-0.59097 0.3175,-0.92521 0,-0.35331 1.412216,-2.59977 3.373437,-5.36624 l 3.373437,-4.75853 1.770323,-0.005 c 0.973677,-0.003 1.843907,0.11426 1.933844,0.25978 0.463396,0.74979 2.161294,-0.28942 1.84016,-1.12628 -0.202804,-0.5285 -1.133179,-0.76878 -1.73325,-0.44763 -0.257948,0.13805 -1.251896,0.251 -2.208772,0.251 -1.33464,0 -1.828961,0.10782 -2.122765,0.46302 -0.476909,0.57657 -2.280401,3.10516 -5.035789,7.06044 -1.164167,1.67113 -2.257472,3.04324 -2.429567,3.04914 -0.468701,0.0161 -0.70262,1.03932 -0.338021,1.47864 0.387737,0.46719 0.835254,0.49088 1.259463,0.0667 z m 11.165416,-11.58875 c 0,-0.14552 0.119062,-0.26458 0.264583,-0.26458 0.145521,0 0.264584,0.11906 0.264584,0.26458 0,0.14552 -0.119063,0.26459 -0.264584,0.26459 -0.145521,0 -0.264583,-0.11907 -0.264583,-0.26459 z m 54.461175,11.67384 c 0.46677,-0.29587 0.28936,-1.46026 -0.23779,-1.5606 -0.47651,-0.0907 -1.19213,1.07168 -0.92543,1.5032 0.21289,0.34446 0.67442,0.36723 1.16322,0.0574 z m -36.998677,-1.21649 c 0,-0.35009 -0.11906,-0.71012 -0.264582,-0.80006 -0.16457,-0.10171 -0.264583,-2.5786 -0.264583,-6.55256 v -6.38904 l 6.938665,-6.9568 6.93867,-6.9568 h 3.332293 3.3323 l 2.59565,2.4361 c 2.4244,2.27538 2.66497,2.43334 3.646334,2.3942 1.16329,-0.0464 2.32026,-0.66914 2.32026,-1.24891 0,-0.65641 -0.51225,-0.72269 -1.22886,-0.159 -1.20506,0.9479 -4.915854,-1.25448 -6.523354,-3.87166 -0.15805,-0.25733 -1.18129,-0.34448 -4.04453,-0.34448 h -3.832953 l -7.13411,7.19735 -7.134115,7.19736 v 6.54536 c 0,4.07817 -0.09973,6.607 -0.264583,6.70888 -0.431259,0.26654 -0.301361,1.40834 0.191605,1.68421 0.647999,0.36264 1.395893,-0.11107 1.395893,-0.88415 z m 6.35,-0.80006 c 0.23832,-0.28715 0.86904,-0.39687 2.28136,-0.39687 1.5587,0 1.95197,-0.08 1.95197,-0.39688 0,-0.39565 -0.0525,-0.40107 -4.96093,-0.51263 -0.57149,-0.013 -0.74677,0.11897 -0.8169,0.615 -0.139,0.98304 0.91199,1.45351 1.5445,0.69138 z M 48.49193,143.45264 c 1.309688,-1.91073 2.659725,-3.81082 3.000082,-4.22243 l 0.618833,-0.74837 h 6.07929 c 3.34361,0 6.279823,0.10499 6.524918,0.23332 0.706297,0.3698 1.689097,-0.12507 1.588723,-0.79997 -0.12328,-0.82892 -0.87703,-1.23168 -1.535467,-0.82048 -0.381179,0.23805 -2.26437,0.3288 -6.823156,0.3288 h -6.296666 l -2.720466,3.80697 c -1.496256,2.09383 -3.010153,4.07912 -3.364216,4.41174 -0.805506,0.75674 -0.82618,1.30963 -0.04844,1.29538 0.461504,-0.008 1.130545,-0.79177 2.976562,-3.48496 z m 43.391666,1.90837 c 0.0899,-0.14553 1.04149,-0.26459 2.11456,-0.26459 h 1.95103 l 5.073324,-5.06531 5.07332,-5.06532 2.59381,0.15802 c 2.10547,0.12828 2.62103,0.0871 2.73838,-0.21869 0.20918,-0.54512 -0.5966,-1.26489 -1.12385,-1.0039 -0.23589,0.11677 -1.39373,0.22046 -2.57297,0.2304 l -2.14406,0.0181 -4.99969,5.08268 -4.999684,5.08267 -1.53066,-0.006 c -0.93633,-0.004 -1.777,-0.1676 -2.16507,-0.42187 -1.06167,-0.69563 -2.4311,0.68294 -1.55184,1.5622 0.27123,0.27124 1.35971,0.20904 1.5434,-0.0882 z m -12.620623,-0.3175 c 0.38512,-0.38513 0.41864,-1.44085 0.0529,-1.66688 -1.04704,-0.64711 -0.2728,-2.98917 1.52136,-4.60208 l 1.78594,-1.60551 5.04031,-0.005 c 3.276283,-0.003 5.140753,0.0954 5.327303,0.28193 0.40146,0.40146 1.42831,0.19967 1.77171,-0.34817 0.50696,-0.80876 -0.40882,-1.448 -1.50603,-1.05124 -0.57324,0.20729 -2.6759,0.31867 -6.015653,0.31867 h -5.13437 l -1.92445,1.91161 -1.92445,1.91161 v 1.51236 c 0,0.8318 -0.11906,1.58594 -0.26458,1.67588 -0.63278,0.39108 -0.10168,1.98438 0.66146,1.98438 0.16007,0 0.43391,-0.14288 0.60854,-0.3175 z m -33.768439,-0.38497 c 0.26612,-0.24084 0.483855,-0.59092 0.483855,-0.77797 0,-0.32564 4.206936,-6.77748 4.849252,-7.43691 0.325939,-0.33462 15.428124,-0.48884 17.415841,-0.17784 0.838951,0.13126 0.991249,0.072 1.156904,-0.44989 0.27943,-0.88041 -1.125727,-1.79573 -1.593873,-1.03826 -0.103413,0.16733 -3.226056,0.26459 -8.494915,0.26459 h -8.331393 l -0.682357,0.7276 c -0.375296,0.40018 -1.242009,1.56104 -1.92603,2.57969 -2.736777,4.07561 -3.332633,4.87503 -3.640891,4.8847 -0.545739,0.0171 -0.954692,1.04349 -0.590585,1.48221 0.410588,0.49473 0.760038,0.47978 1.354192,-0.0579 z m 37.393229,-1.67878 c 0.10161,-0.16441 2.54959,-0.26459 6.465513,-0.26459 5.21539,0 6.35752,-0.0669 6.62405,-0.38806 0.28124,-0.33887 -0.52805,-0.40089 -6.38375,-0.48925 -3.688193,-0.0557 -7.075803,-0.1897 -7.528003,-0.29789 -0.90687,-0.21697 -1.3168,0.27125 -1.01806,1.21248 0.16946,0.53394 1.54568,0.70393 1.84025,0.22731 z m -1.19063,-0.52917 c 0,-0.14552 0.12609,-0.26458 0.2802,-0.26458 0.15411,0 0.20662,0.11906 0.11668,0.26458 -0.0899,0.14552 -0.21603,0.26458 -0.2802,0.26458 -0.0642,0 -0.11668,-0.11906 -0.11668,-0.26458 z m 37.275927,-6.59024 c 0.73261,-0.46397 0.13181,-1.61184 -0.84364,-1.61184 -0.69656,0 -1.14227,-0.28188 -2.30103,-1.45521 -1.39905,-1.41665 -2.11575,-1.79724 -2.11754,-1.12448 -10e-4,0.38144 4.23349,4.42781 4.63109,4.42532 0.14552,-9.1e-4 0.42952,-0.10611 0.63112,-0.23379 z m 11.87044,-0.28602 c 5.68113,-0.003 6.15156,-0.0383 6.15157,-0.46593 0,-0.43172 -0.47473,-0.45661 -7.02366,-0.36823 l -7.02365,0.0948 -1.51066,-1.44092 c -1.77718,-1.69514 -4.69728,-2.30388 -4.50359,-0.93884 0.0763,0.53788 0.23166,0.60268 1.44476,0.60268 1.26686,0 1.46469,0.0945 2.91042,1.39091 1.38275,1.23991 1.6517,1.37667 2.4772,1.25969 0.50933,-0.0722 3.69425,-0.13254 7.07761,-0.13415 z m -80.747017,-0.82522 c 0.300421,-0.27533 0.674635,-0.5006 0.831588,-0.5006 0.38076,0 0.606567,-0.64188 0.606567,-1.72421 0,-3.46036 13.591317,-16.06279 17.04281,-15.8028 0.675504,0.0509 1.21344,-0.39615 1.21344,-1.00839 0,-0.72452 -0.938664,-0.89886 -1.549697,-0.28782 -0.285137,0.28513 -1.549037,0.90991 -2.808666,1.38838 l -2.290234,0.86996 -5.929565,6.03863 c -6.617961,6.73969 -6.471838,6.55094 -6.471838,8.35979 0,1.46809 -0.23344,1.75583 -1.628099,2.00686 -0.880608,0.1585 -1.282317,0.55341 -1.282317,1.26059 0,0.40679 1.641656,-0.0282 2.266011,-0.60039 z m 89.808997,0.42544 c 0.37242,-0.44875 1.47194,-0.53332 1.71979,-0.13229 0.24759,0.40062 1.08247,0.31682 1.46767,-0.14731 0.31649,-0.38135 5.09224,-0.39286 11.76149,-0.0284 0.68185,0.0373 0.79375,-0.0499 0.79375,-0.61808 0,-0.57294 -0.10621,-0.6528 -0.79375,-0.59674 -0.43656,0.0356 -1.69886,0.13916 -2.80511,0.23016 -1.94332,0.15986 -2.01678,0.14475 -2.17145,-0.44673 -0.14837,-0.56735 -0.19483,-0.5813 -0.63447,-0.19048 -0.45288,0.40258 -4.13183,0.72946 -8.07466,0.71745 -1.49748,-0.005 -2.3216,0.38215 -2.3216,1.0894 0,0.6154 0.59252,0.68426 1.05834,0.12298 z m -34.79271,-5.14925 4.49792,-4.5012 1.37123,-0.003 c 1.15914,-0.003 1.39852,-0.0894 1.54764,-0.55922 0.26554,-0.83667 -0.2782,-1.22877 -0.91048,-0.65656 -0.37409,0.33855 -0.73907,0.41983 -1.31609,0.29309 -0.75464,-0.16574 -1.06624,0.0869 -5.67918,4.60529 -2.6844,2.62935 -5.012014,4.78065 -5.172454,4.78065 -0.16044,0 -0.29172,0.30071 -0.29172,0.66825 0,1.10584 1.005534,0.32432 5.953134,-4.62688 z m 53.53038,3.90011 c -0.0686,-0.47659 -0.48462,-0.72292 -2.20122,-1.30324 -3.77672,-1.27678 -4.16405,-0.88008 -0.7276,0.7452 2.73134,1.2918 3.04292,1.35117 2.92882,0.55804 z m -104.191592,-0.0816 c 0.259238,-0.31237 0.266631,-0.5567 0.0324,-1.07079 -0.166916,-0.36634 -0.303483,-0.86779 -0.303483,-1.11433 0,-0.57601 10.833705,-11.43309 11.408469,-11.43309 0.58055,0 1.123097,-0.69072 0.93256,-1.18726 -0.21936,-0.57164 -1.512313,-0.51626 -1.665979,0.0713 -0.06783,0.25938 -2.676058,2.94764 -5.796063,5.9739 -4.561773,4.42472 -5.674385,5.64073 -5.681152,6.20913 -0.0046,0.38876 -0.183222,0.93795 -0.396875,1.22042 -0.840889,1.11176 0.582534,2.40014 1.470126,1.33066 z m 3.307721,-0.66484 c 0.1119,-0.18106 2.444434,-0.26329 6.7902,-0.23938 6.746662,0.0371 7.230266,-0.03 7.049456,-0.97807 -0.121142,-0.63523 -1.281774,-0.81705 -1.598844,-0.25048 -0.290431,0.51897 -11.521952,0.64389 -12.03202,0.13382 -0.503237,-0.50323 -1.529523,-0.17438 -1.627936,0.52165 -0.12345,0.8731 0.9883,1.50958 1.419144,0.81246 z m 68.055181,-0.0265 c 0.45134,-0.45135 11.56802,-0.67387 12.08842,-0.24198 0.58829,0.48824 1.47343,0.0949 1.47343,-0.65485 0,-0.82119 -0.86934,-1.33176 -1.32753,-0.77967 -0.41962,0.5056 -11.46223,0.58018 -12.54957,0.0847 -1.08895,-0.49616 -2.22429,0.76809 -1.41582,1.57656 0.40196,0.40196 1.3361,0.41015 1.73107,0.0152 z m 22.2931,-0.75602 c 0.40916,-0.76453 2.00351,-0.72478 2.65299,0.0661 0.39621,0.48248 0.57975,0.53979 0.96845,0.30237 1.43841,-0.87859 0.25865,-1.44562 -4.02915,-1.93652 -1.0246,-0.1173 -2.23908,-0.4078 -2.69884,-0.64556 -1.02663,-0.53089 -1.65595,-0.55357 -1.65595,-0.0597 0,0.38406 2.81298,1.47604 3.82169,1.48355 0.44813,0.003 0.47403,0.0492 0.14706,0.26054 -0.21828,0.14106 -0.78383,0.2583 -1.25677,0.26053 -0.47294,0.002 -0.8599,0.10327 -0.8599,0.22453 0,0.79463 2.48857,0.83234 2.91042,0.0441 z m -49.195114,-0.009 c 0.6235,-0.33369 0.67338,-1.2682 0.0799,-1.49596 -0.23755,-0.0912 -0.65266,-0.0279 -0.92245,0.14059 -0.34443,0.21511 -2.95873,0.30634 -8.77792,0.30634 -6.877193,0 -8.374793,0.0661 -8.800993,0.38846 -0.60599,0.45836 -1.50533,0.40464 9.385423,0.56059 4.13477,0.0592 7.57766,0.16755 7.65087,0.24076 0.21605,0.21605 0.83627,0.15301 1.38522,-0.14078 z m 64.008984,-0.11962 c 0.37573,-0.45273 0.1806,-1.18859 -0.31963,-1.20535 -0.18647,-0.006 -1.03737,-1.08154 -1.8909,-2.38953 -1.69177,-2.59258 -1.98996,-2.84224 -6.91787,-5.7919 -3.29466,-1.97206 -3.5688,-2.08546 -3.5688,-1.47617 0,0.21186 0.8632,0.88318 1.91823,1.49182 4.59984,2.65361 5.8481,3.5431 6.99556,4.98489 1.24732,1.56726 2.19871,3.20732 2.19871,3.79025 0,0.87332 1.03233,1.26157 1.5847,0.59599 z m -2.37845,-0.74521 c 0,-0.85028 -1.68501,-2.00781 -2.89665,-1.98987 -0.9383,0.0139 -1.28692,-0.11426 -1.71979,-0.63217 -0.8121,-0.97163 -6.00043,-3.76525 -9.93565,-5.34979 -8.50645,-3.42517 -11.1125,-3.95176 -11.1125,-2.24543 0,0.15224 0.24433,0.10235 0.55113,-0.11254 0.65816,-0.46099 5.23899,0.96325 9.96772,3.09909 1.4925,0.67412 2.78428,1.22568 2.87061,1.22568 0.45501,0 6.66467,3.57659 7.11575,4.09847 0.37066,0.42884 0.90626,0.64994 1.78808,0.73816 0.81246,0.0813 1.56309,0.36754 2.11666,0.80723 0.97461,0.7741 1.25464,0.85471 1.25464,0.36117 z M 59.007782,129.94903 c 0.214639,-0.32743 0.911718,-1.10133 1.549063,-1.7198 l 1.15881,-1.12447 h 6.428175 c 5.394823,0 6.530053,0.0668 7.061943,0.41525 0.58936,0.38617 0.67212,0.3769 1.18131,-0.13229 1.07418,-1.07417 -0.005,-2.3028 -1.34624,-1.53294 -0.69237,0.39737 -1.636995,0.45736 -7.321918,0.46502 l -6.526995,0.009 -1.807342,1.72899 c -1.126026,1.0772 -1.752533,1.87181 -1.661949,2.10787 0.21643,0.564 0.842668,0.45854 1.285143,-0.21643 z m 33.934154,0.33073 c 0.0989,-0.16 1.98424,-0.26459 4.76949,-0.26459 h 4.605974 l 1.66227,-1.7351 c 0.91425,-0.95431 1.70195,-1.84728 1.75046,-1.98438 0.21373,-0.60406 -0.78435,-0.16583 -1.58805,0.69727 -1.88863,2.02824 -1.90512,2.03319 -6.603224,1.98432 -2.49276,-0.0259 -4.49725,-0.1672 -4.88609,-0.34437 -0.92874,-0.42316 -1.90813,0.49004 -1.44788,1.35003 0.31279,0.58445 1.44021,0.7771 1.73705,0.29682 z m -0.92605,-0.80937 c 0,-0.15411 0.11907,-0.20661 0.26459,-0.11668 0.14552,0.0899 0.26458,0.21603 0.26458,0.2802 0,0.0642 -0.11906,0.11668 -0.26458,0.11668 -0.14552,0 -0.26459,-0.12609 -0.26459,-0.2802 z m -6.157883,-0.3327 c 1.48607,-2.77836 5.035793,-4.64576 6.917143,-3.6389 0.60115,0.32173 1.1707,-0.045 1.04782,-0.6747 -0.088,-0.45102 -0.31893,-0.48905 -2.47343,-0.4074 l -2.37635,0.0901 -1.852093,1.79187 c -1.01864,0.98553 -2.06314,1.86504 -2.3211,1.95446 -0.96312,0.33387 -0.9165,1.76209 0.0575,1.76209 0.33069,0 0.70828,-0.33116 1.00049,-0.87748 z m 3.247473,0.62211 c 0,-0.14046 0.36952,-0.67624 0.82116,-1.19063 l 0.82116,-0.93525 h 2.48613 c 2.27371,0 2.48613,-0.0433 2.48613,-0.50712 0,-1.13383 -4.70512,-0.91773 -5.96572,0.274 -0.44349,0.41926 -0.91037,0.76229 -1.0375,0.76229 -0.59388,0 -1.178933,0.86579 -0.91646,1.35622 0.27223,0.50867 1.3051,0.69899 1.3051,0.24049 z m 68.788874,-1.46105 c 0.43485,-0.52396 0.14939,-1.19399 -0.50868,-1.19399 -0.65967,0 -3.23312,-1.37974 -6.29416,-3.37457 -1.40031,-0.91256 -2.32249,-1.04199 -2.32249,-0.32598 0,0.21901 0.29308,0.43325 0.66146,0.48352 0.3638,0.0496 0.84005,0.24634 1.05833,0.4371 0.50353,0.44002 5.03683,3.04451 5.2992,3.04451 0.10791,0 0.39122,0.29766 0.62959,0.66146 0.49188,0.75069 0.99964,0.84283 1.47675,0.26795 z m -36.50971,-1.98133 c 2.83766,-0.002 5.5133,0.025 5.94586,0.0608 0.59581,0.0493 0.81126,-0.059 0.88867,-0.44663 0.14588,-0.73051 -0.66872,-1.26975 -1.3596,-0.90001 -0.32263,0.17267 -3.08368,0.33931 -6.90877,0.41697 -3.50425,0.0712 -6.4741,0.2244 -6.59966,0.34055 -0.54508,0.50421 0.18903,0.83615 1.51705,0.68597 0.74639,-0.0844 3.6788,-0.15536 6.51645,-0.15768 z m 16.191,-0.93963 c 0.46529,-1.0212 -0.0234,-1.36473 -1.32851,-0.93399 -1.11225,0.36708 -1.89402,0.22772 -2.96989,-0.5294 -0.60986,-0.42917 -1.47946,-0.48116 -8.99584,-0.53785 l -8.32071,-0.0627 -0.0847,0.57375 c -0.10396,0.7042 0.61832,1.04309 1.30679,0.61313 1.01734,-0.63534 15.30313,-0.40914 16.00845,0.25347 0.35387,0.33244 1.08862,0.61535 1.80907,0.69655 0.66724,0.0752 1.27699,0.24002 1.355,0.36623 0.27807,0.44993 0.92061,0.21871 1.22035,-0.43914 z m -83.486855,-0.39204 c 0.175163,-0.36252 2.083153,-2.3503 4.239978,-4.41729 l 3.9215,-3.75817 3.042708,-1.24558 c 1.67349,-0.68507 5.174555,-2.12756 7.780144,-3.20552 3.389818,-1.4024 4.922758,-1.91341 5.388928,-1.79641 0.69604,0.17469 1.64759,-0.45166 1.64759,-1.08451 0,-0.70739 -1.03803,-0.96941 -1.80368,-0.45529 -0.73593,0.49418 -9.794554,4.32769 -13.280615,5.62021 -2.946632,1.09253 -3.04589,1.16408 -7.373006,5.31519 -2.198013,2.10861 -4.190851,3.83501 -4.42853,3.83646 -0.770413,0.005 -1.264602,1.05085 -0.742861,1.57259 0.58209,0.58209 1.214722,0.43191 1.607844,-0.38168 z m 53.962265,-1.04267 c 1.00332,-0.93856 1.82422,-1.83152 1.82422,-1.98437 0,-0.28108 3.37977,-0.65108 6.87917,-0.75309 l 1.85208,-0.054 10e-4,-1.05833 c 7.8e-4,-0.58208 -0.0995,-1.27948 -0.22295,-1.54976 -0.13749,-0.30116 -0.11243,-0.60336 0.0647,-0.78052 0.43106,-0.43107 0.3491,-1.2416 -0.12555,-1.2416 -0.49755,0 -2.23119,1.77621 -2.23119,2.28597 0,0.5078 0.26841,0.44851 0.97513,-0.21542 0.48267,-0.45345 0.61237,-0.48833 0.61237,-0.16469 0,0.22583 -0.1786,0.55882 -0.39688,0.73998 -0.51405,0.42662 -0.50683,0.79375 0.0156,0.79375 0.22687,0 0.3389,0.11906 0.24897,0.26458 -0.0899,0.14552 -0.63978,0.26458 -1.22186,0.26458 -0.63818,0 -0.99342,-0.10503 -0.89481,-0.26458 0.21706,-0.35121 -0.0392,-0.33413 -0.745,0.0497 -0.32954,0.17919 -1.37391,0.28647 -2.43,0.24961 l -1.85208,-0.0646 -2.18582,2.13164 -2.18581,2.13164 h -2.85115 -2.85115 l -2.371374,-2.27191 c -1.30425,-1.24955 -2.1592,-2.20432 -1.89988,-2.12172 0.32482,0.10347 0.544,-0.0334 0.70459,-0.44006 0.1282,-0.32465 0.98759,-1.3076 1.90976,-2.18434 l 1.676664,-1.59407 2.31716,0.0922 2.31716,0.0922 1.71774,1.69255 c 2.06354,2.03329 2.0673,1.7602 -0.0499,3.62627 -1.7113,1.50827 -1.74045,1.52135 -3.39226,1.52135 h -1.66613 l -1.34946,-1.47653 c -1.590494,-1.74024 -1.564534,-1.60966 -0.542464,-2.72868 0.924884,-1.01262 1.129754,-0.98133 0.812714,0.12413 -1.020524,3.55834 4.51146,4.98163 5.95297,1.53161 1.54773,-3.70425 -4.62506,-5.36662 -7.557454,-2.03526 -1.33134,1.51249 -1.36019,1.27131 0.41926,3.50477 l 1.492834,1.87371 2.40977,-0.002 2.40978,-0.002 1.80487,-1.71407 c 1.45071,-1.37773 1.77047,-1.82248 1.62952,-2.26655 -0.16362,-0.51554 -0.0985,-0.54294 0.97325,-0.40978 3.64744,0.45317 4.26559,0.46955 4.48783,0.11892 0.38052,-0.60034 0.25779,-1.01572 -0.30011,-1.01572 -0.29301,0 -0.7729,0.14883 -1.0664,0.33073 -0.43525,0.26975 -0.57613,0.26246 -0.76404,-0.0395 -0.17437,-0.28021 -0.58143,-0.32897 -1.67406,-0.20055 l -1.44367,0.16967 -2.08818,-1.84629 -2.08818,-1.8463 -2.65204,-0.004 -2.652044,-0.004 -2.11046,2.13913 c -2.21474,2.24484 -3.1303,2.8299 -3.69504,2.36121 -0.43453,-0.36063 -1.05172,0.35438 -0.8222,0.95251 0.12558,0.32723 0.36754,0.39219 0.99414,0.26687 0.76913,-0.15383 1.00529,0.009 3.31268,2.28284 l 2.48451,2.44848 h 3.127264 3.12725 z m -5.39295,-3.33562 c -0.72603,-0.50853 -0.78002,-1.71361 -0.10418,-2.32524 0.65691,-0.59449 1.01353,-0.55204 1.77713,0.21155 1.37824,1.37824 -0.0845,3.22631 -1.67295,2.11369 z m -36.968254,4.38063 c 0.101952,-0.16496 2.722907,-0.26737 6.960928,-0.27198 l 6.797409,-0.007 5.29166,-5.16405 c 2.91042,-2.84022 5.652483,-5.45046 6.093473,-5.80052 0.79158,-0.62837 0.89777,-0.63864 8.33437,-0.80579 l 7.532584,-0.1693 1.29587,0.94483 c 0.71273,0.51966 1.43062,1.21511 1.59531,1.54546 0.36025,0.72258 1.42027,0.8048 1.838,0.14257 0.35096,-0.55639 -0.18798,-1.20735 -1.15351,-1.3933 -0.3455,-0.0665 -1.05324,-0.4587 -1.57276,-0.87147 -0.51952,-0.41277 -1.10793,-0.8482 -1.30757,-0.96762 -0.19965,-0.11942 -3.88478,-0.1938 -8.189174,-0.16529 l -7.82618,0.0518 -2.39416,2.20445 c -1.316793,1.21244 -4.089223,3.87915 -6.160963,5.92602 l -3.7668,3.72157 -6.634158,-0.0934 c -3.648789,-0.0514 -6.706308,-0.16558 -6.794488,-0.25376 -0.694627,-0.69462 -1.831197,0.20522 -1.51551,1.19987 0.167087,0.52644 1.290621,0.68852 1.575669,0.22731 z m 49.232374,-1.17559 c 0.21289,-0.84821 -0.0354,-1.20566 -0.83754,-1.20566 -0.7817,0 -1.05349,0.5457 -0.6486,1.30224 0.41027,0.76661 1.28374,0.70984 1.48614,-0.0966 z m -3.22318,-0.56584 c 0.27396,-0.71391 0.18191,-0.90455 -0.43471,-0.90035 -0.8451,0.006 -1.36128,0.40029 -1.17134,0.89528 0.20979,0.5467 1.39677,0.55044 1.60605,0.005 z m -36.643857,-1.0367 c 1.27528,-1.19287 2.89223,-1.6419 3.33466,-0.92604 0.28813,0.4662 1.16205,0.2832 1.4794,-0.30978 0.44524,-0.83195 -0.98572,-1.81191 -1.4794,-1.01313 -0.0899,0.14552 -0.73453,0.26458 -1.43244,0.26458 -1.16,0 -3.991515,2.14721 -3.991515,3.02687 0,0.48059 0.988074,-0.0124 2.089295,-1.0425 z m -5.793462,0.26459 c 0.211279,-0.25458 0.797098,-0.39688 1.63386,-0.39688 1.254673,0 1.360601,-0.0606 2.774227,-1.5875 l 1.469745,-1.5875 h 3.21974 3.21974 l 1.8379,-1.85208 c 1.01084,-1.01865 1.97533,-1.85208 2.14332,-1.85208 0.55165,0 0.85044,-0.62977 0.60559,-1.27642 -0.29071,-0.76775 -1.03169,-0.67224 -1.46071,0.1883 -0.17192,0.34484 -1.06444,1.38558 -1.98338,2.31276 l -1.67079,1.68577 h -3.13913 -3.13914 l -1.366424,1.43227 c -1.393717,1.46087 -3.531127,2.25663 -4.004411,1.49084 -0.453131,-0.73318 -1.99222,-0.099 -1.99222,0.82083 0,0.86372 1.291443,1.29722 1.852083,0.62169 z m 78.581259,0.055 c 0,-0.4801 -9.77754,-4.00932 -10.1303,-3.65656 -0.32312,0.32313 0.22176,0.57853 5.3678,2.51601 4.04574,1.52321 4.7625,1.69487 4.7625,1.14055 z m -25.88948,-0.18727 c 0.11554,-0.77028 0.0244,-0.87725 -0.76731,-0.90064 -0.72291,-0.0213 -0.85992,0.0695 -0.8599,0.56991 2e-5,0.61989 1.53698,0.93228 1.62721,0.33073 z m 8.89,-0.15303 c 1.79948,-0.36766 0.1993,-0.64072 -3.7547,-0.64072 -4.12582,0 -4.9207,0.13494 -4.52894,0.76883 0.1427,0.23088 7.04933,0.12407 8.28364,-0.12811 z m 18.46185,-1.18147 c 0.26177,-0.42356 -0.39367,-1.04675 -1.10091,-1.04675 -0.8756,0 -6.50929,-2.29098 -6.88844,-2.80123 -0.49136,-0.66127 -1.54282,-0.37505 -1.54282,0.41998 0,0.55366 0.14095,0.67503 0.86481,0.74474 0.47564,0.0458 2.44017,0.71849 4.36562,1.49488 3.80104,1.53265 4.04697,1.60059 4.30174,1.18838 z m -17.33737,-0.39088 c 0,-0.54149 -10.33682,-0.47098 -10.51739,0.0717 -0.0856,0.25725 1.0704,0.33073 5.20367,0.33073 4.57974,0 5.31372,-0.0556 5.31372,-0.40247 z m 1.32291,-0.91114 c 0,-0.99104 -12.50919,-1.56127 -12.7653,-0.5819 -0.14619,0.55902 -0.11246,0.56288 5.58151,0.63908 3.15072,0.0422 6.05601,0.10399 6.45619,0.13738 0.40018,0.0334 0.7276,-0.0542 0.7276,-0.19456 z m -62.177085,-0.36563 c 0.727941,-0.0319 0.943262,-0.1613 1.006542,-0.60498 0.0741,-0.51957 -0.01275,-0.55392 -1.092854,-0.43218 -0.645346,0.0727 -1.383092,0.0149 -1.639435,-0.12857 -0.702163,-0.39296 -1.449253,-0.0925 -1.449253,0.58277 0,0.84222 0.275195,1.00961 1.322916,0.80466 0.509323,-0.0996 1.342761,-0.19939 1.852084,-0.2217 z m 22.136331,-1.18712 2.42486,-0.17635 1.88982,-1.82545 1.88981,-1.82545 3.317004,0.17733 3.31701,0.17733 1.81647,1.62632 1.81647,1.62633 2.65343,0.0218 c 2.89255,0.0238 3.3463,-0.20874 2.39667,-1.22805 -0.48974,-0.52567 -0.55181,-0.53293 -1.01015,-0.11814 -0.34588,0.31301 -0.96775,0.44194 -2.13163,0.44194 h -1.64329 l -1.83113,-1.71979 -1.83114,-1.71979 -3.64849,0.0108 -3.648504,0.0108 -0.92386,0.78952 c -0.50813,0.43424 -0.96454,0.66753 -1.01424,0.51842 -0.0497,-0.14911 -0.67016,-0.27111 -1.37879,-0.27111 -0.70863,0 -1.59607,-0.14018 -1.9721,-0.31151 -0.56036,-0.25532 -0.75841,-0.23678 -1.09797,0.10279 -0.92061,0.92061 0.49858,2.29853 1.46582,1.42319 0.27557,-0.24939 0.93547,-0.42072 1.62044,-0.42072 h 1.15555 l -0.89756,0.92604 c -0.94651,0.97656 -4.44185,1.40544 -5.20823,0.63906 -0.72272,-0.72272 -2.20908,0.2508 -1.84228,1.20664 0.14079,0.36689 0.35446,0.42442 1.03429,0.27846 0.47127,-0.10118 1.94804,-0.26333 3.28172,-0.36032 z m -0.17591,-2.95447 c 0,-0.14552 0.12609,-0.26459 0.2802,-0.26459 0.1541,0 0.20661,0.11907 0.11667,0.26459 -0.0899,0.14552 -0.21602,0.26458 -0.2802,0.26458 -0.0642,0 -0.11667,-0.11906 -0.11667,-0.26458 z m 41.153584,3.15739 c 0.31155,-0.50409 -0.0747,-0.58248 -3.90633,-0.79274 -9.40195,-0.51594 -9.73059,-0.51643 -9.73059,-0.0146 0,0.39318 0.30224,0.47081 2.05052,0.52665 1.12779,0.036 3.7174,0.15862 5.75469,0.27244 5.57557,0.31151 5.64425,0.31161 5.83171,0.008 z m 1.11488,-1.37146 c -0.11964,-0.36313 -2.31975,-0.62275 -6.15284,-0.72604 -1.30969,-0.0353 -2.73844,-0.16495 -3.175,-0.28813 -0.46358,-0.1308 1.42637,-0.16955 4.54361,-0.0932 4.95143,0.12135 7.17957,-0.12762 4.79031,-0.53525 -1.24792,-0.21291 -5.32104,-0.86836 -7.48183,-1.20399 -1.01865,-0.15822 -2.38288,-0.39017 -3.03163,-0.51546 -0.97469,-0.18822 -1.28721,-0.14308 -1.79957,0.25994 -1.00049,0.78698 -0.64177,0.89758 2.84682,0.87769 2.84535,-0.0162 3.01165,0.004 1.19063,0.14366 -1.60004,0.12284 -2.09779,0.25146 -2.03929,0.52693 0.062,0.29209 -0.22683,0.3293 -1.45521,0.18744 -2.87962,-0.33255 -2.84861,-0.3358 -2.94005,0.30803 -0.0465,0.32743 0.013,0.60444 0.13229,0.61559 0.11926,0.0112 1.16934,0.0706 2.33351,0.13206 1.16416,0.0615 3.54541,0.21237 5.29166,0.33531 5.15389,0.36283 7.07201,0.35603 6.94659,-0.0246 z m -61.715344,-0.46302 c 0.09139,-0.14787 1.352957,-0.2666 2.859887,-0.26916 l 2.69636,-0.005 2.38125,-2.23215 2.38125,-2.23216 1.63803,-0.0122 c 0.90092,-0.007 1.71162,0.10684 1.80156,0.25236 0.25327,0.40981 1.350843,0.31227 1.738193,-0.15447 0.68513,-0.82553 -0.92186,-1.95832 -1.689333,-1.19085 -0.15785,0.15785 -1.12389,0.28699 -2.14677,0.28699 h -1.85979 l -2.14197,2.13084 -2.14197,2.13085 -2.3817,0.1543 c -1.97886,0.1282 -2.49834,0.0779 -3.071332,-0.29757 -1.108318,-0.72619 -2.519382,0.61371 -1.607068,1.52602 0.271233,0.27124 1.359706,0.20904 1.543403,-0.0882 z m -1.055666,-0.79806 c 0.0914,-0.1479 0.277025,-0.2004 0.41249,-0.11668 0.366989,0.22681 0.298559,0.38558 -0.166189,0.38558 -0.226869,0 -0.337705,-0.12101 -0.246301,-0.2689 z m 44.44813,0.26761 c 0.32483,-0.52558 3.24235,-2.34821 4.12491,-2.5769 0.63472,-0.16448 0.90138,-0.38515 0.90138,-0.74592 0,-0.74902 -1.09601,-0.81852 -1.80512,-0.11447 -0.31687,0.31461 -1.32171,1.0553 -2.23297,1.64598 l -1.65685,1.07397 -1.38586,-0.87271 c -2.44349,-1.5387 -5.53831,-3.45581 -8.66191,-5.36567 -2.87423,-1.75738 -6.371084,-3.97659 -8.491684,-5.38906 -0.97571,-0.6499 -1.82707,-0.61406 -1.82707,0.0769 0,0.20583 0.32743,0.5008 0.72761,0.65548 1.25946,0.48682 1.90938,0.86628 7.871354,4.59576 13.02464,8.1475 12.07013,7.60896 12.43621,7.01662 z m -56.804161,-0.53465 c 0.481691,-0.29368 0.970166,-0.47565 1.0855,-0.40437 0.396943,0.24533 1.116498,-0.51247 0.935207,-0.9849 -0.179094,-0.46671 -1.176718,-0.64963 -1.176718,-0.21576 0,0.13216 -0.535568,0.57865 -1.190152,0.99219 -0.654583,0.41355 -1.190364,0.8412 -1.190625,0.95034 -8.36e-4,0.35092 0.637606,0.21071 1.536788,-0.3375 z m 4.923391,-1.47675 c 0.230183,-0.0883 0.418515,-0.30993 0.418515,-0.49244 0,-0.18252 0.684609,-0.59315 1.521354,-0.91253 0.836745,-0.31937 4.15896,-1.7109 7.382704,-3.0923 l 5.86135,-2.51162 9.286213,0.079 c 7.05147,0.06 9.28618,0.003 9.28605,-0.2361 -3.2e-4,-0.59388 -0.52466,-0.62798 -9.77356,-0.63562 l -9.267183,-0.008 -2.31982,1.03993 c -1.2759,0.57195 -2.61747,1.1294 -2.98128,1.23876 -0.3638,0.10935 -1.256766,0.47661 -1.98437,0.81611 -3.478197,1.62296 -6.6947,2.84267 -7.457604,2.82796 -1.199385,-0.0231 -1.802459,0.68264 -1.253289,1.46669 0.431613,0.61622 0.613619,0.67587 1.28092,0.4198 z m 12.134293,-0.10037 c 0.8813,-0.003 1.29603,-0.27084 3.49023,-2.25257 l 2.49008,-2.24896 h 6.831023 c 6.21908,0 6.85695,-0.0415 7.12047,-0.46302 0.27355,-0.43758 -0.11858,-0.45833 -7.13802,-0.37774 l -7.427463,0.0853 -2.18484,2.09753 c -2.30643,2.21426 -3.26784,2.59008 -4.56061,1.78273 -0.60509,-0.37789 -1.34082,0.0909 -1.34082,0.85432 0,0.55751 0.45019,0.7995 1.19063,0.64002 0.29104,-0.0627 0.97923,-0.1156 1.52932,-0.11759 z M 116.277,112.41997 c -0.97217,-1.00101 -1.90381,-1.1678 -1.90381,-0.34084 0,0.7414 2.03494,2.11218 2.48179,1.67178 0.30967,-0.3052 0.22188,-0.50734 -0.57798,-1.33094 z m -16.588194,-1.19849 c 0,-0.15009 -0.17859,-0.34142 -0.39687,-0.42518 -0.21829,-0.0838 -0.39688,-0.31815 -0.39688,-0.52086 0,-0.42057 -1.30023,-0.51979 -1.3626,-0.10399 -0.12,0.8 -0.0128,0.94014 0.83343,1.08965 0.50933,0.09 1.01534,0.17928 1.12448,0.19844 0.10914,0.0192 0.19844,-0.088 0.19844,-0.23806 z m 3.880944,-0.93825 c 0.33549,-0.87427 -4.019124,-2.01679 -4.530874,-1.18877 -0.225,0.36406 0.29989,0.60074 1.332304,0.60074 0.50237,0 1.17769,0.2218 1.50381,0.49391 0.72905,0.6083 1.48142,0.65008 1.69476,0.0941 z m -5.325274,-0.92313 c 0.0959,-0.1552 0.11999,-0.3366 0.0535,-0.4031 -0.18454,-0.18454 -0.99041,0.18081 -0.99041,0.44901 0,0.3312 0.72583,0.29564 0.93692,-0.0459 z" stroke="#000000" stroke-width="0.1" fill="none"/>
</svg>